<svg xmlns="http://www.w3.org/2000/svg" width="237.71046447753906" height="246.77325439453125" viewBox="-9.043195724487305 -9.744073867797852 237.71046447753906 246.77325439453125"><title>Neo4j Graph Visualization</title><desc>Created using Neo4j (http://www.neo4j.com/)</desc><g class="layer relationships"><g class="relationship" transform="translate(125.56261824606713 128.342463098145) rotate(407.68041525942397)"><path class="outline" fill="#A5ABB6" stroke="none" d="M 25 0.5 L 27.604743116847033 0.5 L 27.604743116847033 -0.5 L 25 -0.5 Z M 73.16724311684703 0.5 L 75.77198623369407 0.5 L 75.77198623369407 3.5 L 82.77198623369407 0 L 75.77198623369407 -3.5 L 75.77198623369407 -0.5 L 73.16724311684703 -0.5 Z"/><text text-anchor="middle" pointer-events="none" font-size="8px" fill="#000000" x="50.38599311684703" y="3" font-family="sans-serif">ACTED_IN</text></g><g class="relationship" transform="translate(125.56261824606713 128.342463098145) rotate(311.0080675262145)"><path class="outline" fill="#A5ABB6" stroke="none" d="M 25 0.5 L 30.186708365170468 0.5 L 30.186708365170468 -0.5 L 25 -0.5 Z M 75.74920836517046 0.5 L 80.93591673034094 0.5 L 80.93591673034094 3.5 L 87.93591673034094 0 L 80.93591673034094 -3.5 L 80.93591673034094 -0.5 L 75.74920836517046 -0.5 Z"/><text text-anchor="middle" pointer-events="none" font-size="8px" fill="#000000" x="52.96795836517047" y="3" font-family="sans-serif">ACTED_IN</text></g><g class="relationship" transform="translate(125.56261824606713 128.342463098145) rotate(254.4379923618684)"><path class="outline" fill="#A5ABB6" stroke="none" d="M 25 0.5 L 30.337628505777126 0.5 L 30.337628505777126 -0.5 L 25 -0.5 Z M 75.90012850577713 0.5 L 81.23775701155425 0.5 L 81.23775701155425 3.5 L 88.23775701155425 0 L 81.23775701155425 -3.5 L 81.23775701155425 -0.5 L 75.90012850577713 -0.5 Z"/><text text-anchor="middle" pointer-events="none" font-size="8px" fill="#000000" x="53.118878505777126" y="3" transform="rotate(180 53.118878505777126 0)" font-family="sans-serif">ACTED_IN</text></g><g class="relationship" transform="translate(125.56261824606713 128.342463098145) rotate(201.14050079609365)"><path class="outline" fill="#A5ABB6" stroke="none" d="M 25 0.5 L 30.33178043965564 0.5 L 30.33178043965564 -0.5 L 25 -0.5 Z M 75.89428043965563 0.5 L 81.22606087931128 0.5 L 81.22606087931128 3.5 L 88.22606087931128 0 L 81.22606087931128 -3.5 L 81.22606087931128 -0.5 L 75.89428043965563 -0.5 Z"/><text text-anchor="middle" pointer-events="none" font-size="8px" fill="#000000" x="53.11303043965564" y="3" transform="rotate(180 53.11303043965564 0)" font-family="sans-serif">ACTED_IN</text></g><g class="relationship" transform="translate(125.56261824606713 128.342463098145) rotate(504.53203619816503)"><path class="outline" fill="#A5ABB6" stroke="none" d="M 25 0.5 L 30.16864805704121 0.5 L 30.16864805704121 -0.5 L 25 -0.5 Z M 75.73114805704121 0.5 L 80.89979611408242 0.5 L 80.89979611408242 3.5 L 87.89979611408242 0 L 80.89979611408242 -3.5 L 80.89979611408242 -0.5 L 75.73114805704121 -0.5 Z"/><text text-anchor="middle" pointer-events="none" font-size="8px" fill="#000000" x="52.94989805704121" y="3" transform="rotate(180 52.94989805704121 0)" font-family="sans-serif">ACTED_IN</text></g></g><g class="layer nodes"><g class="node" transform="translate(125.56261824606713,128.342463098145)"><circle class="outline" cx="0" cy="0" r="25" fill="#F79767" stroke="#f36924" stroke-width="2px"/><text text-anchor="middle" pointer-events="none" font-family="sans-serif" dy="1.5625" font-size="25" fill="#FFFFFF"/><text text-anchor="middle" pointer-events="none" font-family="sans-serif" dy="1.5625" font-size="25" fill="#FFFFFF"/><text text-anchor="middle" pointer-events="none" x="0" y="0" font-size="10px" fill="#FFFFFF" font-family="sans-serif"> Hugo</text><text text-anchor="middle" pointer-events="none" x="0" y="10" font-size="10px" fill="#FFFFFF" font-family="sans-serif"> Weaving</text></g><g class="node" transform="translate(198.1217561954227,208.02917790558283)"><circle class="outline" cx="0" cy="0" r="25" fill="#57C7E3" stroke="#23b3d7" stroke-width="2px"/><text text-anchor="middle" pointer-events="none" font-family="sans-serif" dy="1.5625" font-size="25" fill="#2A2C34"/><text text-anchor="middle" pointer-events="none" font-family="sans-serif" dy="1.5625" font-size="25" fill="#2A2C34"/><text text-anchor="middle" pointer-events="none" x="0" y="0" font-size="10px" fill="#2A2C34" font-family="sans-serif"> V for</text><text text-anchor="middle" pointer-events="none" x="0" y="10" font-size="10px" fill="#2A2C34" font-family="sans-serif"> Vendetta</text></g><g class="node" transform="translate(199.66724671863852,43.119078240087056)"><circle class="outline" cx="0" cy="0" r="25" fill="#57C7E3" stroke="#23b3d7" stroke-width="2px"/><text text-anchor="middle" pointer-events="none" font-family="sans-serif" dy="1.5625" font-size="25" fill="#2A2C34"/><text text-anchor="middle" pointer-events="none" font-family="sans-serif" dy="1.5625" font-size="25" fill="#2A2C34"/><text text-anchor="middle" pointer-events="none" x="0" y="0" font-size="10px" fill="#2A2C34" font-family="sans-serif"> Cloud</text><text text-anchor="middle" pointer-events="none" x="0" y="10" font-size="10px" fill="#2A2C34" font-family="sans-serif"> Atlas</text></g><g class="node" transform="translate(95.18306864835944,19.255925985409487)"><circle class="outline" cx="0" cy="0" r="25" fill="#57C7E3" stroke="#23b3d7" stroke-width="2px"/><text text-anchor="middle" pointer-events="none" font-family="sans-serif" dy="1.5625" font-size="25" fill="#2A2C34"/><text text-anchor="middle" pointer-events="none" font-family="sans-serif" dy="1.5625" font-size="25" fill="#2A2C34"/><text text-anchor="middle" pointer-events="none" font-family="sans-serif" dy="1.5625" font-size="25" fill="#2A2C34"/><text text-anchor="middle" pointer-events="none" x="0" y="-5" font-size="10px" fill="#2A2C34" font-family="sans-serif"> The</text><text text-anchor="middle" pointer-events="none" x="0" y="5" font-size="10px" fill="#2A2C34" font-family="sans-serif"> Matrix</text><text text-anchor="middle" pointer-events="none" x="0" y="15" font-size="10px" fill="#2A2C34" font-family="sans-serif"> Revol…</text></g><g class="node" transform="translate(19.95680373703054,87.50678257083582)"><circle class="outline" cx="0" cy="0" r="25" fill="#57C7E3" stroke="#23b3d7" stroke-width="2px"/><text text-anchor="middle" pointer-events="none" font-family="sans-serif" dy="1.5625" font-size="25" fill="#2A2C34"/><text text-anchor="middle" pointer-events="none" font-family="sans-serif" dy="1.5625" font-size="25" fill="#2A2C34"/><text text-anchor="middle" pointer-events="none" font-family="sans-serif" dy="1.5625" font-size="25" fill="#2A2C34"/><text text-anchor="middle" pointer-events="none" x="0" y="-5" font-size="10px" fill="#2A2C34" font-family="sans-serif"> The</text><text text-anchor="middle" pointer-events="none" x="0" y="5" font-size="10px" fill="#2A2C34" font-family="sans-serif"> Matrix</text><text text-anchor="middle" pointer-events="none" x="0" y="15" font-size="10px" fill="#2A2C34" font-family="sans-serif"> Reloa…</text></g><g class="node" transform="translate(33.61249885284309,193.85230591716896)"><circle class="outline" cx="0" cy="0" r="25" fill="#57C7E3" stroke="#23b3d7" stroke-width="2px"/><text text-anchor="middle" pointer-events="none" font-family="sans-serif" dy="1.5625" font-size="25" fill="#2A2C34"/><text text-anchor="middle" pointer-events="none" font-family="sans-serif" dy="1.5625" font-size="25" fill="#2A2C34"/><text text-anchor="middle" pointer-events="none" x="0" y="0" font-size="10px" fill="#2A2C34" font-family="sans-serif"> The</text><text text-anchor="middle" pointer-events="none" x="0" y="10" font-size="10px" fill="#2A2C34" font-family="sans-serif"> Matrix</text></g></g></svg>