<svg xmlns="http://www.w3.org/2000/svg" width="295.8439025878906" height="296.9136962890625" viewBox="-55.950408935546875 -38.63890075683594 295.8439025878906 296.9136962890625"><title>Neo4j Graph Visualization</title><desc>Created using Neo4j (http://www.neo4j.com/)</desc><g class="layer relationships"><g class="relationship" transform="translate(121.27304625855533 229.27477087415951) rotate(254.39776192439882)"><path class="outline" fill="#A5ABB6" stroke="none" d="M 25 0.5 L 40.2589781652026 0.5 L 40.2589781652026 -0.5 L 25 -0.5 Z M 76.03241566520259 0.5 L 91.2913938304052 0.5 L 91.2913938304052 3.5 L 98.2913938304052 0 L 91.2913938304052 -3.5 L 91.2913938304052 -0.5 L 76.03241566520259 -0.5 Z"/><text text-anchor="middle" pointer-events="none" font-size="8px" fill="#000000" x="58.1456969152026" y="3" transform="rotate(180 58.1456969152026 0)" font-family="sans-serif">WROTE</text></g><g class="relationship" transform="translate(191.66851681543022 177.9487106271172) rotate(213.06708010980338)"><path class="outline" fill="#A5ABB6" stroke="none" d="M 25 0.5 L 40.39825231765499 0.5 L 40.39825231765499 -0.5 L 25 -0.5 Z M 76.171689817655 0.5 L 91.56994213530999 0.5 L 91.56994213530999 3.5 L 98.56994213530999 0 L 91.56994213530999 -3.5 L 91.56994213530999 -0.5 L 76.171689817655 -0.5 Z"/><text text-anchor="middle" pointer-events="none" font-size="8px" fill="#000000" x="58.28497106765499" y="3" transform="rotate(180 58.28497106765499 0)" font-family="sans-serif">WROTE</text></g><g class="relationship" transform="translate(181.67899556406306 28.992771624524362) rotate(498.931053599141)"><path class="outline" fill="#A5ABB6" stroke="none" d="M 25 0.5 L 35.10778373857499 0.5 L 35.10778373857499 -0.5 L 25 -0.5 Z M 81.998408738575 0.5 L 92.10619247714997 0.5 L 92.10619247714997 3.5 L 99.10619247714997 0 L 92.10619247714997 -3.5 L 92.10619247714997 -0.5 L 81.998408738575 -0.5 Z"/><text text-anchor="middle" pointer-events="none" font-size="8px" fill="#000000" x="58.55309623857499" y="3" transform="rotate(180 58.55309623857499 0)" font-family="sans-serif">DIRECTED</text></g><g class="relationship" transform="translate(210.89347288117742 100.40526131719864) rotate(535.2876013274843)"><path class="outline" fill="#A5ABB6" stroke="none" d="M 25 0.5 L 35.31725795570071 0.5 L 35.31725795570071 -0.5 L 25 -0.5 Z M 80.87975795570071 0.5 L 91.19701591140142 0.5 L 91.19701591140142 3.5 L 98.19701591140142 0 L 91.19701591140142 -3.5 L 91.19701591140142 -0.5 L 80.87975795570071 -0.5 Z"/><text text-anchor="middle" pointer-events="none" font-size="8px" fill="#000000" x="58.09850795570071" y="3" transform="rotate(180 58.09850795570071 0)" font-family="sans-serif">ACTED_IN</text></g><g class="relationship" transform="translate(114.91623949090274 -9.638900197862672) rotate(462.5742043792862)"><path class="outline" fill="#A5ABB6" stroke="none" d="M 25 0.5 L 35.27790959324784 0.5 L 35.27790959324784 -0.5 L 25 -0.5 Z M 80.84040959324784 0.5 L 91.11831918649568 0.5 L 91.11831918649568 3.5 L 98.11831918649568 0 L 91.11831918649568 -3.5 L 91.11831918649568 -0.5 L 80.84040959324784 -0.5 Z"/><text text-anchor="middle" pointer-events="none" font-size="8px" fill="#000000" x="58.05915959324784" y="3" transform="rotate(180 58.05915959324784 0)" font-family="sans-serif">ACTED_IN</text></g><g class="relationship" transform="translate(35.49624313806579 -1.2139925028231362) rotate(424.7850474606417)"><path class="outline" fill="#A5ABB6" stroke="none" d="M 25 0.5 L 35.47316513993122 0.5 L 35.47316513993122 -0.5 L 25 -0.5 Z M 81.03566513993121 0.5 L 91.50883027986244 0.5 L 91.50883027986244 3.5 L 98.50883027986244 0 L 91.50883027986244 -3.5 L 91.50883027986244 -0.5 L 81.03566513993121 -0.5 Z"/><text text-anchor="middle" pointer-events="none" font-size="8px" fill="#000000" x="58.25441513993122" y="3" font-family="sans-serif">ACTED_IN</text></g><g class="relationship" transform="translate(-24.949249346484173 61.53150854929919) rotate(383.42924769699)"><path class="outline" fill="#A5ABB6" stroke="none" d="M 25 0.5 L 35.32952809208052 0.5 L 35.32952809208052 -0.5 L 25 -0.5 Z M 80.89202809208052 0.5 L 91.22155618416105 0.5 L 91.22155618416105 3.5 L 98.22155618416105 0 L 91.22155618416105 -3.5 L 91.22155618416105 -0.5 L 80.89202809208052 -0.5 Z"/><text text-anchor="middle" pointer-events="none" font-size="8px" fill="#000000" x="58.11077809208052" y="3" font-family="sans-serif">ACTED_IN</text></g><g class="relationship" transform="translate(-26.950405128080707 151.73381148807138) rotate(340.2961293093442)"><path class="outline" fill="#A5ABB6" stroke="none" d="M 25 0.5 L 34.828519985184165 0.5 L 34.828519985184165 -0.5 L 25 -0.5 Z M 80.39101998518416 0.5 L 90.21953997036833 0.5 L 90.21953997036833 3.5 L 97.21953997036833 0 L 90.21953997036833 -3.5 L 90.21953997036833 -0.5 L 80.39101998518416 -0.5 Z"/><text text-anchor="middle" pointer-events="none" font-size="8px" fill="#000000" x="57.609769985184165" y="3" font-family="sans-serif">ACTED_IN</text></g><g class="relationship" transform="translate(31.65369184499877 218.94975838834932) rotate(297.5073146690547)"><path class="outline" fill="#A5ABB6" stroke="none" d="M 25 0.5 L 34.84007489595698 0.5 L 34.84007489595698 -0.5 L 25 -0.5 Z M 80.40257489595697 0.5 L 90.24264979191396 0.5 L 90.24264979191396 3.5 L 97.24264979191396 0 L 90.24264979191396 -3.5 L 90.24264979191396 -0.5 L 80.40257489595697 -0.5 Z"/><text text-anchor="middle" pointer-events="none" font-size="8px" fill="#000000" x="57.62132489595698" y="3" font-family="sans-serif">ACTED_IN</text></g></g><g class="layer nodes"><g class="node" transform="translate(88.11290819769273,110.52641073209857)"><circle class="outline" cx="0" cy="0" r="25" fill="#57C7E3" stroke="#23b3d7" stroke-width="2px"/><text text-anchor="middle" pointer-events="none" font-family="sans-serif" dy="1.5625" font-size="25" fill="#2A2C34"/><text text-anchor="middle" pointer-events="none" font-family="sans-serif" dy="1.5625" font-size="25" fill="#2A2C34"/><text text-anchor="middle" pointer-events="none" font-family="sans-serif" dy="1.5625" font-size="25" fill="#2A2C34"/><text text-anchor="middle" pointer-events="none" x="0" y="-5" font-size="10px" fill="#2A2C34" font-family="sans-serif"> Captain</text><text text-anchor="middle" pointer-events="none" x="0" y="5" font-size="10px" fill="#2A2C34" font-family="sans-serif"> America:</text><text text-anchor="middle" pointer-events="none" x="0" y="15" font-size="10px" fill="#2A2C34" font-family="sans-serif"> The Fi…</text></g><g class="node" transform="translate(121.27304625855533,229.27477087415951)"><circle class="outline" cx="0" cy="0" r="25" fill="#F79767" stroke="#f36924" stroke-width="2px"/><text text-anchor="middle" pointer-events="none" font-family="sans-serif" dy="1.5625" font-size="25" fill="#FFFFFF"/><text text-anchor="middle" pointer-events="none" font-family="sans-serif" dy="1.5625" font-size="25" fill="#FFFFFF"/><text text-anchor="middle" pointer-events="none" x="0" y="0" font-size="10px" fill="#FFFFFF" font-family="sans-serif"> Stephen</text><text text-anchor="middle" pointer-events="none" x="0" y="10" font-size="10px" fill="#FFFFFF" font-family="sans-serif"> McFeely</text></g><g class="node" transform="translate(191.66851681543022,177.9487106271172)"><circle class="outline" cx="0" cy="0" r="25" fill="#F79767" stroke="#f36924" stroke-width="2px"/><text text-anchor="middle" pointer-events="none" font-family="sans-serif" dy="1.5625" font-size="25" fill="#FFFFFF"/><text text-anchor="middle" pointer-events="none" x="0" y="5" font-size="10px" fill="#FFFFFF" font-family="sans-serif"> Christop…</text></g><g class="node" transform="translate(181.67899556406306,28.992771624524362)"><circle class="outline" cx="0" cy="0" r="25" fill="#F79767" stroke="#f36924" stroke-width="2px"/><text text-anchor="middle" pointer-events="none" font-family="sans-serif" dy="1.5625" font-size="25" fill="#FFFFFF"/><text text-anchor="middle" pointer-events="none" font-family="sans-serif" dy="1.5625" font-size="25" fill="#FFFFFF"/><text text-anchor="middle" pointer-events="none" x="0" y="0" font-size="10px" fill="#FFFFFF" font-family="sans-serif"> Joe</text><text text-anchor="middle" pointer-events="none" x="0" y="10" font-size="10px" fill="#FFFFFF" font-family="sans-serif"> Johnston</text></g><g class="node" transform="translate(210.89347288117742,100.40526131719864)"><circle class="outline" cx="0" cy="0" r="25" fill="#F79767" stroke="#f36924" stroke-width="2px"/><text text-anchor="middle" pointer-events="none" font-family="sans-serif" dy="1.5625" font-size="25" fill="#FFFFFF"/><text text-anchor="middle" pointer-events="none" font-family="sans-serif" dy="1.5625" font-size="25" fill="#FFFFFF"/><text text-anchor="middle" pointer-events="none" x="0" y="0" font-size="10px" fill="#FFFFFF" font-family="sans-serif"> Dominic</text><text text-anchor="middle" pointer-events="none" x="0" y="10" font-size="10px" fill="#FFFFFF" font-family="sans-serif"> Cooper</text></g><g class="node" transform="translate(114.91623949090274,-9.638900197862672)"><circle class="outline" cx="0" cy="0" r="25" fill="#F79767" stroke="#f36924" stroke-width="2px"/><text text-anchor="middle" pointer-events="none" font-family="sans-serif" dy="1.5625" font-size="25" fill="#FFFFFF"/><text text-anchor="middle" pointer-events="none" font-family="sans-serif" dy="1.5625" font-size="25" fill="#FFFFFF"/><text text-anchor="middle" pointer-events="none" x="0" y="0" font-size="10px" fill="#FFFFFF" font-family="sans-serif"> Hugo</text><text text-anchor="middle" pointer-events="none" x="0" y="10" font-size="10px" fill="#FFFFFF" font-family="sans-serif"> Weaving</text></g><g class="node" transform="translate(35.49624313806579,-1.2139925028231362)"><circle class="outline" cx="0" cy="0" r="25" fill="#F79767" stroke="#f36924" stroke-width="2px"/><text text-anchor="middle" pointer-events="none" font-family="sans-serif" dy="1.5625" font-size="25" fill="#FFFFFF"/><text text-anchor="middle" pointer-events="none" font-family="sans-serif" dy="1.5625" font-size="25" fill="#FFFFFF"/><text text-anchor="middle" pointer-events="none" x="0" y="0" font-size="10px" fill="#FFFFFF" font-family="sans-serif"> Tommy</text><text text-anchor="middle" pointer-events="none" x="0" y="10" font-size="10px" fill="#FFFFFF" font-family="sans-serif"> Lee Jon…</text></g><g class="node" transform="translate(-24.949249346484173,61.53150854929919)"><circle class="outline" cx="0" cy="0" r="25" fill="#F79767" stroke="#f36924" stroke-width="2px"/><text text-anchor="middle" pointer-events="none" font-family="sans-serif" dy="1.5625" font-size="25" fill="#FFFFFF"/><text text-anchor="middle" pointer-events="none" x="0" y="5" font-size="10px" fill="#FFFFFF" font-family="sans-serif"> Sebastian</text></g><g class="node" transform="translate(-26.950405128080707,151.73381148807138)"><circle class="outline" cx="0" cy="0" r="25" fill="#F79767" stroke="#f36924" stroke-width="2px"/><text text-anchor="middle" pointer-events="none" font-family="sans-serif" dy="1.5625" font-size="25" fill="#FFFFFF"/><text text-anchor="middle" pointer-events="none" font-family="sans-serif" dy="1.5625" font-size="25" fill="#FFFFFF"/><text text-anchor="middle" pointer-events="none" x="0" y="0" font-size="10px" fill="#FFFFFF" font-family="sans-serif"> Haylel</text><text text-anchor="middle" pointer-events="none" x="0" y="10" font-size="10px" fill="#FFFFFF" font-family="sans-serif"> Atwell</text></g><g class="node" transform="translate(31.65369184499877,218.94975838834932)"><circle class="outline" cx="0" cy="0" r="25" fill="#F79767" stroke="#f36924" stroke-width="2px"/><text text-anchor="middle" pointer-events="none" font-family="sans-serif" dy="1.5625" font-size="25" fill="#FFFFFF"/><text text-anchor="middle" pointer-events="none" font-family="sans-serif" dy="1.5625" font-size="25" fill="#FFFFFF"/><text text-anchor="middle" pointer-events="none" x="0" y="0" font-size="10px" fill="#FFFFFF" font-family="sans-serif"> Chris</text><text text-anchor="middle" pointer-events="none" x="0" y="10" font-size="10px" fill="#FFFFFF" font-family="sans-serif"> Evan</text></g></g></svg>