<svg xmlns="http://www.w3.org/2000/svg" width="382.50372314453125" height="354.6752624511719" viewBox="-73.54594421386719 -78.64736938476562 382.50372314453125 354.6752624511719"><title>Neo4j Graph Visualization</title><desc>Created using Neo4j (http://www.neo4j.com/)</desc><g class="layer relationships"><g class="relationship" transform="translate(23.068474954198432 -40.89881521694661) rotate(388.29917477487857)"><path class="outline" fill="#A5ABB6" stroke="none" d="M 24.018736134675446,-6.953439040707552 L 24.277555179777966,-5.987513214418485 A 167.62342586937064 167.62342586937064 0 0 1 54.6070899419426,-11.190020211104553 L 54.52920941784251,-12.186982910490002 A 168.62342586937064 168.62342586937064 0 0 0 24.018736134675446,-6.953439040707552 Z M 76.58890369782692,-12.462666128285747 L 76.53596198197873,-11.464068524281487 A 167.62342586937064 167.62342586937064 0 0 1 106.98603724427316,-7.021133181456369 L 106.28223918907501,-4.104856737512946 L 113.90798195600752,-5.86498379331792 L 107.92443465120404,-10.909501773380935 L 107.22063659600589,-7.993225329437511 A 168.62342586937064 168.62342586937064 0 0 0 76.58890369782692,-12.462666128285747"/><text text-anchor="middle" pointer-events="none" font-size="8px" fill="#000000" x="65.56079127017965" y="-9.186015837818417" font-family="sans-serif">road</text></g><g class="relationship" transform="translate(144.76044521671028 24.623298871449474) rotate(378.7346807464364)"><path class="outline" fill="#A5ABB6" stroke="none" d="M 21.40063509461097,-12.933012701892217 L 21.90063509461097,-12.06698729810778 A 96.16525351591257 96.16525351591257 0 0 1 44.903218094988134,-21.62264386729271 L 44.64241658050527,-22.58803631083235 A 97.16525351591257 97.16525351591257 0 0 0 21.40063509461097,-12.933012701892217 Z M 90.88647240746248,-23.675593814424744 L 90.67134189734168,-22.69900850652013 A 96.16525351591257 96.16525351591257 0 0 1 114.09770134853913,-14.23525756377973 L 112.72149410476561,-11.569539344952897 L 120.54707839976399,-11.468393698112658 L 115.93264434023715,-17.789548522215505 L 114.55643709646363,-15.123830303388672 A 97.16525351591257 97.16525351591257 0 0 0 90.88647240746248,-23.675593814424744"/><text text-anchor="middle" pointer-events="none" font-size="8px" fill="#000000" x="67.71053816342877" y="-22.423967294931273" font-family="sans-serif">twowheeler</text></g><g class="relationship" transform="translate(279.95777787460855 70.4762996911358) rotate(198.4544614855772)"><path class="outline" fill="#A5ABB6" stroke="none" d="M 21.40063509461097,12.933012701892217 L 21.90063509461097,12.06698729810778 A 34.20672871374864 34.20672871374864 0 0 0 22.49571052320712,12.402675460310451 L 22.01310696685936,13.27851437666465 A 35.20672871374864 35.20672871374864 0 0 1 21.40063509461097,12.933012701892217 Z M 53.517719622765036,14.51902730210012 L 53.10547682993742,13.6079532766984 A 34.20672871374864 34.20672871374864 0 0 0 53.72510478016751,13.32009478497803 L 52.434033764414515,10.612118486654406 L 60.25889464554814,10.758925131274976 L 55.44653280117151,16.93072984940953 L 54.15546178541851,14.222753551085907 A 35.20672871374864 35.20672871374864 0 0 1 53.517719622765036,14.51902730210012"/><text text-anchor="middle" pointer-events="none" font-size="8px" fill="#000000" x="37.63845947750714" y="20.122945902274466" transform="rotate(180 37.63845947750714 17.122945902274466)" font-family="sans-serif">twow…</text></g><g class="relationship" transform="translate(201.39166298463783 44.25786191525831) rotate(465.935090171521)"><path class="outline" fill="#A5ABB6" stroke="none" d="M 25 0.5 L 55.49541698614324 0.5 L 55.49541698614324 -0.5 L 25 -0.5 Z M 74.83135448614324 0.5 L 105.32677147228648 0.5 L 105.32677147228648 3.5 L 112.32677147228648 0 L 105.32677147228648 -3.5 L 105.32677147228648 -0.5 L 74.83135448614324 -0.5 Z"/><text text-anchor="middle" pointer-events="none" font-size="8px" fill="#000000" x="65.16338573614324" y="3" transform="rotate(180 65.16338573614324 0)" font-family="sans-serif">trek</text></g><g class="relationship" transform="translate(23.068474954198432 -40.89881521694661) rotate(388.29917477487857)"><path class="outline" fill="#A5ABB6" stroke="none" d="M 24.018736134675446,6.953439040707552 L 24.277555179777966,5.987513214418485 A 167.62342586937064 167.62342586937064 0 0 0 55.93734949425896,11.28861351417936 L 55.86740497042504,12.28616439688443 A 168.62342586937064 168.62342586937064 0 0 1 24.018736134675446,6.953439040707552 Z M 75.24864749122808,12.528374612275428 L 75.2036539960953,11.529387332378548 A 167.62342586937064 167.62342586937064 0 0 0 106.98603724427316,7.021133181456369 L 106.28223918907501,4.104856737512946 L 113.90798195600752,5.86498379331792 L 107.92443465120404,10.909501773380935 L 107.22063659600589,7.993225329437511 A 168.62342586937064 168.62342586937064 0 0 1 75.24864749122808,12.528374612275428"/><text text-anchor="middle" pointer-events="none" font-size="8px" fill="#000000" x="65.56079127017968" y="15.186015837818417" font-family="sans-serif">trek</text></g><g class="relationship" transform="translate(144.76044521671028 24.623298871449474) rotate(378.7346807464364)"><path class="outline" fill="#A5ABB6" stroke="none" d="M 25 0.5 L 56.8748390699938 0.5 L 56.8748390699938 -0.5 L 25 -0.5 Z M 78.8865578199938 0.5 L 110.7613968899876 0.5 L 110.7613968899876 3.5 L 117.7613968899876 0 L 110.7613968899876 -3.5 L 110.7613968899876 -0.5 L 78.8865578199938 -0.5 Z"/><text text-anchor="middle" pointer-events="none" font-size="8px" fill="#000000" x="67.8806984449938" y="3" font-family="sans-serif">road</text></g><g class="relationship" transform="translate(144.76044521671028 24.623298871449474) rotate(378.7346807464364)"><path class="outline" fill="#A5ABB6" stroke="none" d="M 21.40063509461097,12.933012701892217 L 21.90063509461097,12.06698729810778 A 96.16525351591257 96.16525351591257 0 0 0 58.1343122636957,24.217915517441952 L 58.01109780571155,25.210295584424188 A 97.16525351591257 97.16525351591257 0 0 1 21.40063509461097,12.933012701892217 Z M 77.40929981650163,25.66649822010949 L 77.33287292833714,24.669423031988998 A 96.16525351591257 96.16525351591257 0 0 0 114.09770134853913,14.23525756377973 L 112.72149410476561,11.569539344952897 L 120.54707839976399,11.468393698112658 L 115.93264434023715,17.789548522215505 L 114.55643709646363,15.123830303388672 A 97.16525351591257 97.16525351591257 0 0 1 77.40929981650163,25.66649822010949"/><text text-anchor="middle" pointer-events="none" font-size="8px" fill="#000000" x="67.71053816342877" y="28.423967294931273" font-family="sans-serif">trek</text></g><g class="relationship" transform="translate(279.95777787460855 70.4762996911358) rotate(198.4544614855772)"><path class="outline" fill="#A5ABB6" stroke="none" d="M 25 0.5 L 26.90682252412251 0.5 L 26.90682252412251 -0.5 L 25 -0.5 Z M 48.91854127412251 0.5 L 50.82536379824502 0.5 L 50.82536379824502 3.5 L 57.82536379824502 0 L 50.82536379824502 -3.5 L 50.82536379824502 -0.5 L 48.91854127412251 -0.5 Z"/><text text-anchor="middle" pointer-events="none" font-size="8px" fill="#000000" x="37.91268189912251" y="3" transform="rotate(180 37.91268189912251 0)" font-family="sans-serif">road</text></g><g class="relationship" transform="translate(279.95777787460855 70.4762996911358) rotate(198.4544614855772)"><path class="outline" fill="#A5ABB6" stroke="none" d="M 21.40063509461097,-12.933012701892217 L 21.90063509461097,-12.06698729810778 A 34.20672871374864 34.20672871374864 0 0 1 28.31136317798173,-14.935672232819037 L 27.998774495123968,-15.885560813311109 A 35.20672871374864 35.20672871374864 0 0 0 21.40063509461097,-12.933012701892217 Z M 47.345593975778634,-16.647353376639778 L 47.108662149703136,-15.675827098151885 A 34.20672871374864 34.20672871374864 0 0 1 53.72510478016751,-13.32009478497803 L 52.434033764414515,-10.612118486654406 L 60.25889464554814,-10.758925131274976 L 55.44653280117151,-16.93072984940953 L 54.15546178541851,-14.222753551085907 A 35.20672871374864 35.20672871374864 0 0 0 47.345593975778634,-16.647353376639778"/><text text-anchor="middle" pointer-events="none" font-size="8px" fill="#000000" x="37.63845947750713" y="-14.122945902274466" transform="rotate(180 37.63845947750713 -17.122945902274466)" font-family="sans-serif">trek</text></g><g class="relationship" transform="translate(23.068474954198432 -40.89881521694661) rotate(354.1353170799259)"><path class="outline" fill="#A5ABB6" stroke="none" d="M 21.40063509461097,12.933012701892217 L 21.90063509461097,12.06698729810778 A 37.15810319576362 37.15810319576362 0 0 0 29.680358236192006,15.441297853111323 L 29.38972638129334,16.398132804875814 A 38.15810319576362 38.15810319576362 0 0 1 21.40063509461097,12.933012701892217 Z M 48.75377039073803,17.13736595259433 L 48.53693351979095,16.161158100035315 A 37.15810319576362 37.15810319576362 0 0 0 56.55127118585716,13.389794598880663 L 55.25371427811947,10.6849200969523 L 63.078904508312945,10.81297423114744 L 58.281347062840744,16.996293934785143 L 56.98379015510305,14.291419432856781 A 38.15810319576362 38.15810319576362 0 0 1 48.75377039073803,17.13736595259433"/><text text-anchor="middle" pointer-events="none" font-size="8px" fill="#000000" x="39.04311409265609" y="20.517818174359157" font-family="sans-serif">trek</text></g><g class="relationship" transform="translate(108.23986680827547 -49.647365503698516) rotate(405.2307756003047)"><path class="outline" fill="#A5ABB6" stroke="none" d="M 25 0.5 L 52.96721263534239 0.5 L 52.96721263534239 -0.5 L 25 -0.5 Z M 72.30315013534239 0.5 L 100.27036277068478 0.5 L 100.27036277068478 3.5 L 107.27036277068478 0 L 100.27036277068478 -3.5 L 100.27036277068478 -0.5 L 72.30315013534239 -0.5 Z"/><text text-anchor="middle" pointer-events="none" font-size="8px" fill="#000000" x="62.63518138534239" y="3" font-family="sans-serif">trek</text></g><g class="relationship" transform="translate(23.068474954198432 -40.89881521694661) rotate(354.1353170799259)"><path class="outline" fill="#A5ABB6" stroke="none" d="M 25 0.5 L 28.30390330385798 0.5 L 28.30390330385798 -0.5 L 25 -0.5 Z M 50.31562205385798 0.5 L 53.61952535771596 0.5 L 53.61952535771596 3.5 L 60.61952535771596 0 L 53.61952535771596 -3.5 L 53.61952535771596 -0.5 L 50.31562205385798 -0.5 Z"/><text text-anchor="middle" pointer-events="none" font-size="8px" fill="#000000" x="39.30976267885798" y="3" font-family="sans-serif">road</text></g><g class="relationship" transform="translate(23.068474954198432 -40.89881521694661) rotate(354.1353170799259)"><path class="outline" fill="#A5ABB6" stroke="none" d="M 21.40063509461097,-12.933012701892217 L 21.90063509461097,-12.06698729810778 A 37.15810319576362 37.15810319576362 0 0 1 22.231696984316166,-12.255868685540293 L 21.740606531931153,-13.126977270951016 A 38.15810319576362 38.15810319576362 0 0 0 21.40063509461097,-12.933012701892217 Z M 56.630020347037686,-14.458900044108091 L 56.206772535905976,-13.552886087056542 A 37.15810319576362 37.15810319576362 0 0 1 56.55127118585716,-13.389794598880663 L 55.25371427811947,-10.6849200969523 L 63.078904508312945,-10.81297423114744 L 58.281347062840744,-16.996293934785143 L 56.98379015510305,-14.291419432856781 A 38.15810319576362 38.15810319576362 0 0 0 56.630020347037686,-14.458900044108091"/><text text-anchor="middle" pointer-events="none" font-size="8px" fill="#000000" x="39.04311409265608" y="-14.517818174359157" font-family="sans-serif">Public…</text></g><g class="relationship" transform="translate(108.23986680827547 -49.647365503698516) rotate(493.27633003083116)"><path class="outline" fill="#A5ABB6" stroke="none" d="M 24.018736134675446,-6.953439040707552 L 24.277555179777966,-5.987513214418485 A 180.84789758408198 180.84789758408198 0 0 1 45.83881507336282,-10.378994530983334 L 45.6992191996746,-11.369203090858065 A 181.84789758408198 181.84789758408198 0 0 0 24.018736134675446,-6.953439040707552 Z M 92.1615151022341,-11.924156390091014 L 92.04561010668033,-10.93089608583756 A 180.84789758408198 180.84789758408198 0 0 1 113.70560907245117,-7.055656589334799 L 112.99858663590865,-4.140160186622991 L 120.62627108486913,-5.8918536378542425 L 114.64830565450785,-10.942985126283876 L 113.94128321796533,-8.027488723572068 A 181.84789758408198 181.84789758408198 0 0 0 92.1615151022341,-11.924156390091014"/><text text-anchor="middle" pointer-events="none" font-size="8px" fill="#000000" x="68.91854073559507" y="-9.636821452667078" transform="rotate(180 68.91854073559507 -12.636821452667078)" font-family="sans-serif">twowheeler</text></g><g class="relationship" transform="translate(8.893228682033527 55.86402323343518) rotate(426.34654330798537)"><path class="outline" fill="#A5ABB6" stroke="none" d="M 24.018736134675446,-6.953439040707552 L 24.277555179777966,-5.987513214418485 A 115.85024920243582 115.85024920243582 0 0 1 29.554515912894235,-7.26970292751939 L 29.341246711399695,-8.246696401240627 A 116.85024920243582 116.85024920243582 0 0 0 24.018736134675446,-6.953439040707552 Z M 75.69090772408236,-8.953274442311468 L 75.50751828488899,-7.970234100518553 A 115.85024920243582 115.85024920243582 0 0 1 80.82111054158217,-6.849492217280943 L 80.13334410159986,-3.929393362099141 L 87.74930227700342,-5.731386999852533 L 81.73813246155858,-10.742957357523345 L 81.05036602157627,-7.822858502341543 A 116.85024920243582 116.85024920243582 0 0 0 75.69090772408236,-8.953274442311468"/><text text-anchor="middle" pointer-events="none" font-size="8px" fill="#000000" x="52.48830915246705" y="-7.421497466611271" font-family="sans-serif">twowheeler</text></g><g class="relationship" transform="translate(53.86154078593281 158.53121749911318) rotate(369.19403446192587)"><path class="outline" fill="#A5ABB6" stroke="none" d="M 24.018736134675446,6.953439040707552 L 24.277555179777966,5.987513214418485 A 114.20183283451544 114.20183283451544 0 0 0 29.14744981101533,7.178472501056731 L 28.93127364221668,8.154826875269066 A 115.20183283451544 115.20183283451544 0 0 1 24.018736134675446,6.953439040707552 Z M 75.27476906230842,8.866260506870006 L 75.08866434477201,7.883730591747465 A 114.20183283451544 114.20183283451544 0 0 0 79.99282117887192,6.842815855404941 L 79.30567835392766,3.9225701914020616 L 86.92125153236935,5.72619020786882 L 80.90901161213093,10.736476740742116 L 80.22186878718666,7.816231076739236 A 115.20183283451544 115.20183283451544 0 0 1 75.27476906230842,8.866260506870006"/><text text-anchor="middle" pointer-events="none" font-size="8px" fill="#000000" x="52.074547892691896" y="13.365333209857383" font-family="sans-serif">twowheeler</text></g><g class="relationship" transform="translate(108.23986680827547 -49.647365503698516) rotate(493.27633003083116)"><path class="outline" fill="#A5ABB6" stroke="none" d="M 24.018736134675446,6.953439040707552 L 24.277555179777966,5.987513214418485 A 180.84789758408198 180.84789758408198 0 0 0 59.29152185193233,11.764844130493373 L 59.22631283569882,12.762715757608731 A 181.84789758408198 181.84789758408198 0 0 1 24.018736134675446,6.953439040707552 Z M 78.60499660857478,12.994177941851689 L 78.56364028074697,11.995033480750777 A 180.84789758408198 180.84789758408198 0 0 0 113.70560907245117,7.055656589334799 L 112.99858663590865,4.140160186622991 L 120.62627108486913,5.8918536378542425 L 114.64830565450785,10.942985126283876 L 113.94128321796533,8.027488723572068 A 181.84789758408198 181.84789758408198 0 0 1 78.60499660857478,12.994177941851689"/><text text-anchor="middle" pointer-events="none" font-size="8px" fill="#000000" x="68.91854073559512" y="15.636821452667078" transform="rotate(180 68.91854073559512 12.636821452667078)" font-family="sans-serif">trek</text></g><g class="relationship" transform="translate(8.893228682033527 55.86402323343518) rotate(426.34654330798537)"><path class="outline" fill="#A5ABB6" stroke="none" d="M 24.018736134675446,6.953439040707552 L 24.277555179777966,5.987513214418485 A 115.85024920243582 115.85024920243582 0 0 0 42.88779235328836,9.375320442809453 L 42.78961376689552,10.370489255209606 A 116.85024920243582 116.85024920243582 0 0 1 24.018736134675446,6.953439040707552 Z M 62.18405255436548,10.666148042495422 L 62.116254269336586,9.668448993409413 A 115.85024920243582 115.85024920243582 0 0 0 80.82111054158217,6.849492217280943 L 80.13334410159986,3.929393362099141 L 87.74930227700342,5.731386999852533 L 81.73813246155858,10.742957357523345 L 81.05036602157627,7.822858502341543 A 116.85024920243582 116.85024920243582 0 0 1 62.18405255436548,10.666148042495422"/><text text-anchor="middle" pointer-events="none" font-size="8px" fill="#000000" x="52.48830915246706" y="13.421497466611271" font-family="sans-serif">trek</text></g><g class="relationship" transform="translate(53.86154078593281 158.53121749911318) rotate(369.19403446192587)"><path class="outline" fill="#A5ABB6" stroke="none" d="M 24.018736134675446,-6.953439040707552 L 24.277555179777966,-5.987513214418485 A 114.20183283451544 114.20183283451544 0 0 1 42.47514727446555,-9.312433262130767 L 42.37567411412704,-10.307473507735068 A 115.20183283451544 115.20183283451544 0 0 0 24.018736134675446,-6.953439040707552 Z M 61.77062744550959,-10.6052115604693 L 61.701744314509895,-9.607586824276538 A 114.20183283451544 114.20183283451544 0 0 1 79.99282117887192,-6.842815855404941 L 79.30567835392766,-3.9225701914020616 L 86.92125153236935,-5.72619020786882 L 80.90901161213093,-10.736476740742116 L 80.22186878718666,-7.816231076739236 A 115.20183283451544 115.20183283451544 0 0 0 61.77062744550959,-10.6052115604693"/><text text-anchor="middle" pointer-events="none" font-size="8px" fill="#000000" x="52.07454789269187" y="-7.365333209857383" font-family="sans-serif">trek</text></g><g class="relationship" transform="translate(108.23986680827547 -49.647365503698516) rotate(423.81560283539704)"><path class="outline" fill="#A5ABB6" stroke="none" d="M 25 0.5 L 28.21404495768619 0.5 L 28.21404495768619 -0.5 L 25 -0.5 Z M 47.54998245768619 0.5 L 50.76402741537238 0.5 L 50.76402741537238 3.5 L 57.76402741537238 0 L 50.76402741537238 -3.5 L 50.76402741537238 -0.5 L 47.54998245768619 -0.5 Z"/><text text-anchor="middle" pointer-events="none" font-size="8px" fill="#000000" x="37.88201370768619" y="3" font-family="sans-serif">trek</text></g><g class="relationship" transform="translate(8.893228682033527 55.86402323343518) rotate(474.9998454035933)"><path class="outline" fill="#A5ABB6" stroke="none" d="M 24.018736134675446,-6.953439040707552 L 24.277555179777966,-5.987513214418485 A 144.38280581054295 144.38280581054295 0 0 1 36.65723622149214,-8.728256194018371 L 36.48415924915387,-9.713164495154189 A 145.38280581054295 145.38280581054295 0 0 0 24.018736134675446,-6.953439040707552 Z M 82.90550628266823,-10.344521455820967 L 82.75927901008768,-9.355270433706949 A 144.38280581054295 144.38280581054295 0 0 1 95.20891858791339,-6.952220463972869 L 94.5115569466027,-4.034398203925412 L 102.13339746824258,-5.811347010922482 L 96.13873410966099,-10.842650144036146 L 95.4413724683503,-7.924827883988688 A 145.38280581054295 145.38280581054295 0 0 0 82.90550628266823,-10.344521455820967"/><text text-anchor="middle" pointer-events="none" font-size="8px" fill="#000000" x="59.676268023195796" y="-8.393839986469317" transform="rotate(180 59.676268023195796 -11.393839986469317)" font-family="sans-serif">twowheeler</text></g><g class="relationship" transform="translate(-44.54594243236022 170.46550282852192) rotate(353.08526954851527)"><path class="outline" fill="#A5ABB6" stroke="none" d="M 21.40063509461097,12.933012701892217 L 21.90063509461097,12.06698729810778 A 51.30215338964799 51.30215338964799 0 0 0 23.782105655234144,13.101375500196454 L 23.318779955167194,13.987563570335901 A 52.30215338964799 52.30215338964799 0 0 1 21.40063509461097,12.933012701892217 Z M 68.65008952620863,15.495868143300775 L 68.24669547129102,14.58084178496069 A 51.30215338964799 51.30215338964799 0 0 0 70.19276282688946,13.673806906587181 L 68.86878033055103,10.981768580450378 L 76.69484933726508,11.033187469486963 L 71.95807282200738,17.26319134143625 L 70.63409032566895,14.571153015299448 A 52.30215338964799 52.30215338964799 0 0 1 68.65008952620863,15.495868143300775"/><text text-anchor="middle" pointer-events="none" font-size="8px" fill="#000000" x="45.82905671431538" y="22.411521637613326" font-family="sans-serif">twowheeler</text></g><g class="relationship" transform="translate(8.893228682033527 55.86402323343518) rotate(474.9998454035933)"><path class="outline" fill="#A5ABB6" stroke="none" d="M 24.018736134675446,6.953439040707552 L 24.277555179777966,5.987513214418485 A 144.38280581054295 144.38280581054295 0 0 0 50.06087261514712,10.441651858772502 L 49.98062966358029,11.438427193902669 A 145.38280581054295 145.38280581054295 0 0 1 24.018736134675446,6.953439040707552 Z M 69.3671075340169,11.702094418756701 L 69.31400268174714,10.703505476966626 A 144.38280581054295 144.38280581054295 0 0 0 95.20891858791339,6.952220463972869 L 94.5115569466027,4.034398203925412 L 102.13339746824258,5.811347010922482 L 96.13873410966099,10.842650144036146 L 95.4413724683503,7.924827883988688 A 145.38280581054295 145.38280581054295 0 0 1 69.3671075340169,11.702094418756701"/><text text-anchor="middle" pointer-events="none" font-size="8px" fill="#000000" x="59.67626802319584" y="14.393839986469317" transform="rotate(180 59.67626802319584 11.393839986469317)" font-family="sans-serif">trek</text></g><g class="relationship" transform="translate(-44.54594243236022 170.46550282852192) rotate(353.08526954851527)"><path class="outline" fill="#A5ABB6" stroke="none" d="M 25 0.5 L 35.05839165253588 0.5 L 35.05839165253588 -0.5 L 25 -0.5 Z M 57.07011040253588 0.5 L 67.12850205507176 0.5 L 67.12850205507176 3.5 L 74.12850205507176 0 L 67.12850205507176 -3.5 L 67.12850205507176 -0.5 L 57.07011040253588 -0.5 Z"/><text text-anchor="middle" pointer-events="none" font-size="8px" fill="#000000" x="46.06425102753588" y="3" font-family="sans-serif">road</text></g><g class="relationship" transform="translate(-44.54594243236022 170.46550282852192) rotate(353.08526954851527)"><path class="outline" fill="#A5ABB6" stroke="none" d="M 21.40063509461097,-12.933012701892217 L 21.90063509461097,-12.06698729810778 A 51.30215338964799 51.30215338964799 0 0 1 36.361409062608416,-17.704855196283916 L 36.14328366265036,-18.68077594608542 A 52.30215338964799 52.30215338964799 0 0 0 21.40063509461097,-12.933012701892217 Z M 55.54198179959644,-19.326227078788015 L 55.38921046051534,-18.337965515255682 A 51.30215338964799 51.30215338964799 0 0 1 70.19276282688946,-13.673806906587181 L 68.86878033055103,-10.981768580450378 L 76.69484933726508,-11.033187469486963 L 71.95807282200738,-17.26319134143625 L 70.63409032566895,-14.571153015299448 A 52.30215338964799 52.30215338964799 0 0 0 55.54198179959644,-19.326227078788015"/><text text-anchor="middle" pointer-events="none" font-size="8px" fill="#000000" x="45.829056714315385" y="-16.411521637613326" font-family="sans-serif">trek</text></g><g class="relationship" transform="translate(-44.54594243236022 170.46550282852192) rotate(396.7837509939193)"><path class="outline" fill="#A5ABB6" stroke="none" d="M 25 0.5 L 50.762258678191344 0.5 L 50.762258678191344 -0.5 L 25 -0.5 Z M 70.09819617819134 0.5 L 95.86045485638269 0.5 L 95.86045485638269 3.5 L 102.86045485638269 0 L 95.86045485638269 -3.5 L 95.86045485638269 -0.5 L 70.09819617819134 -0.5 Z"/><text text-anchor="middle" pointer-events="none" font-size="8px" fill="#000000" x="60.430227428191344" y="3" font-family="sans-serif">trek</text></g><g class="relationship" transform="translate(57.85765198400101 247.02789416193357) rotate(326.24770779228385)"><path class="outline" fill="#A5ABB6" stroke="none" d="M 25 0.5 L 50.47478145582702 0.5 L 50.47478145582702 -0.5 L 25 -0.5 Z M 69.81071895582701 0.5 L 95.28550041165404 0.5 L 95.28550041165404 3.5 L 102.28550041165404 0 L 95.28550041165404 -3.5 L 95.28550041165404 -0.5 L 69.81071895582701 -0.5 Z"/><text text-anchor="middle" pointer-events="none" font-size="8px" fill="#000000" x="60.14275020582702" y="3" font-family="sans-serif">trek</text></g></g><g class="layer nodes"><g class="node" transform="translate(23.068474954198432,-40.89881521694661)"><circle class="outline" cx="0" cy="0" r="25" fill="#F16667" stroke="#eb2728" stroke-width="2px"/><text text-anchor="middle" pointer-events="none" font-family="sans-serif" dy="1.5625" font-size="25" fill="#FFFFFF"/><text text-anchor="middle" pointer-events="none" x="0" y="5" font-size="10px" fill="#FFFFFF" font-family="sans-serif"> Darjeeling</text></g><g class="node" transform="translate(163.68884847218456,176.30762503826105)"><circle class="outline" cx="0" cy="0" r="25" fill="#D9C8AE" stroke="#c0a378" stroke-width="2px"/><text text-anchor="middle" pointer-events="none" font-family="sans-serif" dy="1.5625" font-size="25" fill="#2A2C34"/><text text-anchor="middle" pointer-events="none" x="0" y="5" font-size="10px" fill="#2A2C34" font-family="sans-serif"> Sandak…</text></g><g class="node" transform="translate(144.76044521671028,24.623298871449474)"><circle class="outline" cx="0" cy="0" r="25" fill="#8DCC93" stroke="#5db665" stroke-width="2px"/><text text-anchor="middle" pointer-events="none" font-family="sans-serif" dy="1.5625" font-size="25" fill="#2A2C34"/><text text-anchor="middle" pointer-events="none" x="0" y="5" font-size="10px" fill="#2A2C34" font-family="sans-serif"> Tumbling</text></g><g class="node" transform="translate(279.95777787460855,70.4762996911358)"><circle class="outline" cx="0" cy="0" r="25" fill="#8DCC93" stroke="#5db665" stroke-width="2px"/><text text-anchor="middle" pointer-events="none" font-family="sans-serif" dy="1.5625" font-size="25" fill="#2A2C34"/><text text-anchor="middle" pointer-events="none" x="0" y="5" font-size="10px" fill="#2A2C34" font-family="sans-serif"> Gairibus</text></g><g class="node" transform="translate(201.39166298463783,44.25786191525831)"><circle class="outline" cx="0" cy="0" r="25" fill="#8DCC93" stroke="#5db665" stroke-width="2px"/><text text-anchor="middle" pointer-events="none" font-family="sans-serif" dy="1.5625" font-size="25" fill="#2A2C34"/><text text-anchor="middle" pointer-events="none" x="0" y="5" font-size="10px" fill="#2A2C34" font-family="sans-serif"> BhikeBh…</text></g><g class="node" transform="translate(108.23986680827547,-49.647365503698516)"><circle class="outline" cx="0" cy="0" r="25" fill="#F16667" stroke="#eb2728" stroke-width="2px"/><text text-anchor="middle" pointer-events="none" font-family="sans-serif" dy="1.5625" font-size="25" fill="#FFFFFF"/><text text-anchor="middle" pointer-events="none" x="0" y="5" font-size="10px" fill="#FFFFFF" font-family="sans-serif"> Rimbik</text></g><g class="node" transform="translate(8.893228682033527,55.86402323343518)"><circle class="outline" cx="0" cy="0" r="25" fill="#8DCC93" stroke="#5db665" stroke-width="2px"/><text text-anchor="middle" pointer-events="none" font-family="sans-serif" dy="1.5625" font-size="25" fill="#2A2C34"/><text text-anchor="middle" pointer-events="none" x="0" y="5" font-size="10px" fill="#2A2C34" font-family="sans-serif"> Sirikhola</text></g><g class="node" transform="translate(53.86154078593281,158.53121749911318)"><circle class="outline" cx="0" cy="0" r="25" fill="#8DCC93" stroke="#5db665" stroke-width="2px"/><text text-anchor="middle" pointer-events="none" font-family="sans-serif" dy="1.5625" font-size="25" fill="#2A2C34"/><text text-anchor="middle" pointer-events="none" x="0" y="5" font-size="10px" fill="#2A2C34" font-family="sans-serif"> Gurdum</text></g><g class="node" transform="translate(-44.54594243236022,170.46550282852192)"><circle class="outline" cx="0" cy="0" r="25" fill="#8DCC93" stroke="#5db665" stroke-width="2px"/><text text-anchor="middle" pointer-events="none" font-family="sans-serif" dy="1.5625" font-size="25" fill="#2A2C34"/><text text-anchor="middle" pointer-events="none" x="0" y="5" font-size="10px" fill="#2A2C34" font-family="sans-serif"> Rammam</text></g><g class="node" transform="translate(57.85765198400101,247.02789416193357)"><circle class="outline" cx="0" cy="0" r="25" fill="#D9C8AE" stroke="#c0a378" stroke-width="2px"/><text text-anchor="middle" pointer-events="none" font-family="sans-serif" dy="1.5625" font-size="25" fill="#2A2C34"/><text text-anchor="middle" pointer-events="none" x="0" y="5" font-size="10px" fill="#2A2C34" font-family="sans-serif"> Sabargr…</text></g></g></svg>