<svg xmlns="http://www.w3.org/2000/svg" width="1121.936279296875" height="952.4588623046875" viewBox="-357.35040283203125 -405.0153503417969 1121.936279296875 952.4588623046875"><title>Neo4j Graph Visualization</title><desc>Created using Neo4j (http://www.neo4j.com/)</desc><g class="layer relationships"><g class="relationship" transform="translate(-76.29889918682166 205.29404244544142) rotate(485.01507037579614)"><path class="outline" fill="#A5ABB6" stroke="none" d="M 25 0.5 L 55.75010022902893 0.5 L 55.75010022902893 -0.5 L 25 -0.5 Z M 114.93760022902893 0.5 L 145.68770045805786 0.5 L 145.68770045805786 3.5 L 152.68770045805786 0 L 145.68770045805786 -3.5 L 145.68770045805786 -0.5 L 114.93760022902893 -0.5 Z"/><text text-anchor="middle" pointer-events="none" font-size="8px" fill="#000000" x="85.34385022902893" y="3" transform="rotate(180 85.34385022902893 0)" font-family="sans-serif">DESTINATION</text></g><g class="relationship" transform="translate(-76.29889918682166 205.29404244544142) rotate(321.5804160607732)"><path class="outline" fill="#A5ABB6" stroke="none" d="M 25 0.5 L 90.60512289185166 0.5 L 90.60512289185166 -0.5 L 25 -0.5 Z M 125.05043539185166 0.5 L 190.65555828370333 0.5 L 190.65555828370333 3.5 L 197.65555828370333 0 L 190.65555828370333 -3.5 L 190.65555828370333 -0.5 L 125.05043539185166 -0.5 Z"/><text text-anchor="middle" pointer-events="none" font-size="8px" fill="#000000" x="107.82777914185166" y="3" font-family="sans-serif">ORIGIN</text></g><g class="relationship" transform="translate(350.5740712039952 44.21610263432697) rotate(534.857706008955)"><path class="outline" fill="#A5ABB6" stroke="none" d="M 25 0.5 L 93.62956342411282 0.5 L 93.62956342411282 -0.5 L 25 -0.5 Z M 152.8170634241128 0.5 L 221.44662684822563 0.5 L 221.44662684822563 3.5 L 228.44662684822563 0 L 221.44662684822563 -3.5 L 221.44662684822563 -0.5 L 152.8170634241128 -0.5 Z"/><text text-anchor="middle" pointer-events="none" font-size="8px" fill="#000000" x="123.22331342411282" y="3" transform="rotate(180 123.22331342411282 0)" font-family="sans-serif">DESTINATION</text></g><g class="relationship" transform="translate(350.5740712039952 44.21610263432697) rotate(365.98760909904047)"><path class="outline" fill="#A5ABB6" stroke="none" d="M 25 0.5 L 64.85315702913023 0.5 L 64.85315702913023 -0.5 L 25 -0.5 Z M 99.29846952913023 0.5 L 139.15162655826046 0.5 L 139.15162655826046 3.5 L 146.15162655826046 0 L 139.15162655826046 -3.5 L 139.15162655826046 -0.5 L 99.29846952913023 -0.5 Z"/><text text-anchor="middle" pointer-events="none" font-size="8px" fill="#000000" x="82.07581327913023" y="3" font-family="sans-serif">ORIGIN</text></g><g class="relationship" transform="translate(661.2740076205555 32.47097345996126) rotate(528.1022153271374)"><path class="outline" fill="#A5ABB6" stroke="none" d="M 25 0.5 L 51.06047962121846 0.5 L 51.06047962121846 -0.5 L 25 -0.5 Z M 85.50579212121846 0.5 L 111.56627174243692 0.5 L 111.56627174243692 3.5 L 118.56627174243692 0 L 111.56627174243692 -3.5 L 111.56627174243692 -0.5 L 85.50579212121846 -0.5 Z"/><text text-anchor="middle" pointer-events="none" font-size="8px" fill="#000000" x="68.28313587121846" y="3" transform="rotate(180 68.28313587121846 0)" font-family="sans-serif">ORIGIN</text></g><g class="relationship" transform="translate(661.2740076205555 32.47097345996126) rotate(422.35345043703455)"><path class="outline" fill="#A5ABB6" stroke="none" d="M 25 0.5 L 46.98097510249417 0.5 L 46.98097510249417 -0.5 L 25 -0.5 Z M 106.16847510249417 0.5 L 128.14945020498834 0.5 L 128.14945020498834 3.5 L 135.14945020498834 0 L 128.14945020498834 -3.5 L 128.14945020498834 -0.5 L 106.16847510249417 -0.5 Z"/><text text-anchor="middle" pointer-events="none" font-size="8px" fill="#000000" x="76.57472510249417" y="3" font-family="sans-serif">DESTINATION</text></g><g class="relationship" transform="translate(48.54890102611003 370.9441103394701) rotate(185.0704143095673)"><path class="outline" fill="#A5ABB6" stroke="none" d="M 25 0.5 L 93.12462659481247 0.5 L 93.12462659481247 -0.5 L 25 -0.5 Z M 127.56993909481247 0.5 L 195.69456568962494 0.5 L 195.69456568962494 3.5 L 202.69456568962494 0 L 195.69456568962494 -3.5 L 195.69456568962494 -0.5 L 127.56993909481247 -0.5 Z"/><text text-anchor="middle" pointer-events="none" font-size="8px" fill="#000000" x="110.34728284481247" y="3" transform="rotate(180 110.34728284481247 0)" font-family="sans-serif">ORIGIN</text></g><g class="relationship" transform="translate(48.54890102611003 370.9441103394701) rotate(337.9145682469466)"><path class="outline" fill="#A5ABB6" stroke="none" d="M 25 0.5 L 91.08821683089747 0.5 L 91.08821683089747 -0.5 L 25 -0.5 Z M 150.27571683089747 0.5 L 216.36393366179493 0.5 L 216.36393366179493 3.5 L 223.36393366179493 0 L 216.36393366179493 -3.5 L 216.36393366179493 -0.5 L 150.27571683089747 -0.5 Z"/><text text-anchor="middle" pointer-events="none" font-size="8px" fill="#000000" x="120.68196683089747" y="3" font-family="sans-serif">DESTINATION</text></g><g class="relationship" transform="translate(188.81288309407753 198.70708106380366) rotate(401.2629022670033)"><path class="outline" fill="#A5ABB6" stroke="none" d="M 25 0.5 L 26.688811665469366 0.5 L 26.688811665469366 -0.5 L 25 -0.5 Z M 85.87631166546936 0.5 L 87.56512333093873 0.5 L 87.56512333093873 3.5 L 94.56512333093873 0 L 87.56512333093873 -3.5 L 87.56512333093873 -0.5 L 85.87631166546936 -0.5 Z"/><text text-anchor="middle" pointer-events="none" font-size="8px" fill="#000000" x="56.282561665469366" y="3" font-family="sans-serif">DESTINATION</text></g><g class="relationship" transform="translate(188.81288309407753 198.70708106380366) rotate(235.4707354043341)"><path class="outline" fill="#A5ABB6" stroke="none" d="M 25 0.5 L 59.25354897670779 0.5 L 59.25354897670779 -0.5 L 25 -0.5 Z M 93.69886147670779 0.5 L 127.95241045341558 0.5 L 127.95241045341558 3.5 L 134.95241045341558 0 L 127.95241045341558 -3.5 L 127.95241045341558 -0.5 L 93.69886147670779 -0.5 Z"/><text text-anchor="middle" pointer-events="none" font-size="8px" fill="#000000" x="76.47620522670779" y="3" transform="rotate(180 76.47620522670779 0)" font-family="sans-serif">ORIGIN</text></g><g class="relationship" transform="translate(239.21884888841976 166.3067188464204) rotate(430.466826946945)"><path class="outline" fill="#A5ABB6" stroke="none" d="M 25 0.5 L 25.930917173485902 0.5 L 25.930917173485902 -0.5 L 25 -0.5 Z M 85.11841717348591 0.5 L 86.0493343469718 0.5 L 86.0493343469718 3.5 L 93.0493343469718 0 L 86.0493343469718 -3.5 L 86.0493343469718 -0.5 L 85.11841717348591 -0.5 Z"/><text text-anchor="middle" pointer-events="none" font-size="8px" fill="#000000" x="55.5246671734859" y="3" font-family="sans-serif">DESTINATION</text></g><g class="relationship" transform="translate(239.21884888841976 166.3067188464204) rotate(215.161863761267)"><path class="outline" fill="#A5ABB6" stroke="none" d="M 25 0.5 L 65.55650392032538 0.5 L 65.55650392032538 -0.5 L 25 -0.5 Z M 100.00181642032538 0.5 L 140.55832034065077 0.5 L 140.55832034065077 3.5 L 147.55832034065077 0 L 140.55832034065077 -3.5 L 140.55832034065077 -0.5 L 100.00181642032538 -0.5 Z"/><text text-anchor="middle" pointer-events="none" font-size="8px" fill="#000000" x="82.77916017032538" y="3" transform="rotate(180 82.77916017032538 0)" font-family="sans-serif">ORIGIN</text></g><g class="relationship" transform="translate(292.9943045359207 -2.405469237922564) rotate(452.9250688668675)"><path class="outline" fill="#A5ABB6" stroke="none" d="M 25 0.5 L 119.4437404448046 0.5 L 119.4437404448046 -0.5 L 25 -0.5 Z M 153.8890529448046 0.5 L 248.3327933896092 0.5 L 248.3327933896092 3.5 L 255.3327933896092 0 L 248.3327933896092 -3.5 L 248.3327933896092 -0.5 L 153.8890529448046 -0.5 Z"/><text text-anchor="middle" pointer-events="none" font-size="8px" fill="#000000" x="136.6663966948046" y="3" transform="rotate(180 136.6663966948046 0)" font-family="sans-serif">ORIGIN</text></g><g class="relationship" transform="translate(292.9943045359207 -2.405469237922564) rotate(248.19564026577143)"><path class="outline" fill="#A5ABB6" stroke="none" d="M 25 0.5 L 81.6457573512613 0.5 L 81.6457573512613 -0.5 L 25 -0.5 Z M 140.8332573512613 0.5 L 197.4790147025226 0.5 L 197.4790147025226 3.5 L 204.4790147025226 0 L 197.4790147025226 -3.5 L 197.4790147025226 -0.5 L 140.8332573512613 -0.5 Z"/><text text-anchor="middle" pointer-events="none" font-size="8px" fill="#000000" x="111.2395073512613" y="3" transform="rotate(180 111.2395073512613 0)" font-family="sans-serif">DESTINATION</text></g><g class="relationship" transform="translate(408.17542908615457 -119.64844617549093) rotate(205.5521105665199)"><path class="outline" fill="#A5ABB6" stroke="none" d="M 25 0.5 L 77.97914784399302 0.5 L 77.97914784399302 -0.5 L 25 -0.5 Z M 137.16664784399302 0.5 L 190.14579568798604 0.5 L 190.14579568798604 3.5 L 197.14579568798604 0 L 190.14579568798604 -3.5 L 190.14579568798604 -0.5 L 137.16664784399302 -0.5 Z"/><text text-anchor="middle" pointer-events="none" font-size="8px" fill="#000000" x="107.57289784399302" y="3" transform="rotate(180 107.57289784399302 0)" font-family="sans-serif">DESTINATION</text></g><g class="relationship" transform="translate(408.17542908615457 -119.64844617549093) rotate(418.21215371396477)"><path class="outline" fill="#A5ABB6" stroke="none" d="M 25 0.5 L 86.16969792427297 0.5 L 86.16969792427297 -0.5 L 25 -0.5 Z M 120.61501042427297 0.5 L 181.78470834854593 0.5 L 181.78470834854593 3.5 L 188.78470834854593 0 L 181.78470834854593 -3.5 L 181.78470834854593 -0.5 L 120.61501042427297 -0.5 Z"/><text text-anchor="middle" pointer-events="none" font-size="8px" fill="#000000" x="103.39235417427297" y="3" font-family="sans-serif">ORIGIN</text></g><g class="relationship" transform="translate(606.7119298507641 204.57539772478205) rotate(238.91329531589224)"><path class="outline" fill="#A5ABB6" stroke="none" d="M 25 0.5 L 62.47915722967974 0.5 L 62.47915722967974 -0.5 L 25 -0.5 Z M 96.92446972967974 0.5 L 134.40362695935949 0.5 L 134.40362695935949 3.5 L 141.40362695935949 0 L 134.40362695935949 -3.5 L 134.40362695935949 -0.5 L 96.92446972967974 -0.5 Z"/><text text-anchor="middle" pointer-events="none" font-size="8px" fill="#000000" x="79.70181347967974" y="3" transform="rotate(180 79.70181347967974 0)" font-family="sans-serif">ORIGIN</text></g><g class="relationship" transform="translate(606.7119298507641 204.57539772478205) rotate(346.79468192659476)"><path class="outline" fill="#A5ABB6" stroke="none" d="M 25 0.5 L 33.09337178076599 0.5 L 33.09337178076599 -0.5 L 25 -0.5 Z M 92.28087178076599 0.5 L 100.37424356153198 0.5 L 100.37424356153198 3.5 L 107.37424356153198 0 L 100.37424356153198 -3.5 L 100.37424356153198 -0.5 L 92.28087178076599 -0.5 Z"/><text text-anchor="middle" pointer-events="none" font-size="8px" fill="#000000" x="62.68712178076599" y="3" font-family="sans-serif">DESTINATION</text></g><g class="relationship" transform="translate(695.6859218303222 81.42288019098322) rotate(186.314532148068)"><path class="outline" fill="#A5ABB6" stroke="none" d="M 25 0.5 L 67.25808770018006 0.5 L 67.25808770018006 -0.5 L 25 -0.5 Z M 101.70340020018006 0.5 L 143.9614879003601 0.5 L 143.9614879003601 3.5 L 150.9614879003601 0 L 143.9614879003601 -3.5 L 143.9614879003601 -0.5 L 101.70340020018006 -0.5 Z"/><text text-anchor="middle" pointer-events="none" font-size="8px" fill="#000000" x="84.48074395018006" y="3" transform="rotate(180 84.48074395018006 0)" font-family="sans-serif">ORIGIN</text></g><g class="relationship" transform="translate(695.6859218303222 81.42288019098322) rotate(426.759635858709)"><path class="outline" fill="#A5ABB6" stroke="none" d="M 25 0.5 L 25.39089015082365 0.5 L 25.39089015082365 -0.5 L 25 -0.5 Z M 68.72682765082365 0.5 L 69.1177178016473 0.5 L 69.1177178016473 3.5 L 76.1177178016473 0 L 69.1177178016473 -3.5 L 69.1177178016473 -0.5 L 68.72682765082365 -0.5 Z"/><text text-anchor="middle" pointer-events="none" font-size="8px" fill="#000000" x="47.05885890082365" y="3" font-family="sans-serif">DESTIN…</text></g><g class="relationship" transform="translate(636.4345979018545 89.68428612314486) rotate(193.43038660884304)"><path class="outline" fill="#A5ABB6" stroke="none" d="M 25 0.5 L 38.72436201400546 0.5 L 38.72436201400546 -0.5 L 25 -0.5 Z M 73.16967451400546 0.5 L 86.89403652801091 0.5 L 86.89403652801091 3.5 L 93.89403652801091 0 L 86.89403652801091 -3.5 L 86.89403652801091 -0.5 L 73.16967451400546 -0.5 Z"/><text text-anchor="middle" pointer-events="none" font-size="8px" fill="#000000" x="55.94701826400546" y="3" transform="rotate(180 55.94701826400546 0)" font-family="sans-serif">ORIGIN</text></g><g class="relationship" transform="translate(636.4345979018545 89.68428612314486) rotate(400.4893625125568)"><path class="outline" fill="#A5ABB6" stroke="none" d="M 25 0.5 L 32.09220526722619 0.5 L 32.09220526722619 -0.5 L 25 -0.5 Z M 91.27970526722619 0.5 L 98.37191053445238 0.5 L 98.37191053445238 3.5 L 105.37191053445238 0 L 98.37191053445238 -3.5 L 98.37191053445238 -0.5 L 91.27970526722619 -0.5 Z"/><text text-anchor="middle" pointer-events="none" font-size="8px" fill="#000000" x="61.68595526722619" y="3" font-family="sans-serif">DESTINATION</text></g><g class="relationship" transform="translate(349.6526363510243 119.04954565387516) rotate(191.70719499704722)"><path class="outline" fill="#A5ABB6" stroke="none" d="M 25 0.5 L 95.3303704588183 0.5 L 95.3303704588183 -0.5 L 25 -0.5 Z M 154.5178704588183 0.5 L 224.8482409176366 0.5 L 224.8482409176366 3.5 L 231.8482409176366 0 L 224.8482409176366 -3.5 L 224.8482409176366 -0.5 L 154.5178704588183 -0.5 Z"/><text text-anchor="middle" pointer-events="none" font-size="8px" fill="#000000" x="124.9241204588183" y="3" transform="rotate(180 124.9241204588183 0)" font-family="sans-serif">DESTINATION</text></g><g class="relationship" transform="translate(349.6526363510243 119.04954565387516) rotate(341.58506324266455)"><path class="outline" fill="#A5ABB6" stroke="none" d="M 25 0.5 L 69.46520097042283 0.5 L 69.46520097042283 -0.5 L 25 -0.5 Z M 103.91051347042283 0.5 L 148.37571444084566 0.5 L 148.37571444084566 3.5 L 155.37571444084566 0 L 148.37571444084566 -3.5 L 148.37571444084566 -0.5 L 103.91051347042283 -0.5 Z"/><text text-anchor="middle" pointer-events="none" font-size="8px" fill="#000000" x="86.68785722042283" y="3" font-family="sans-serif">ORIGIN</text></g><g class="relationship" transform="translate(303.6131730282543 81.11824435323794) rotate(183.94957060232088)"><path class="outline" fill="#A5ABB6" stroke="none" d="M 25 0.5 L 69.88364023279625 0.5 L 69.88364023279625 -0.5 L 25 -0.5 Z M 129.07114023279627 0.5 L 173.9547804655925 0.5 L 173.9547804655925 3.5 L 180.9547804655925 0 L 173.9547804655925 -3.5 L 173.9547804655925 -0.5 L 129.07114023279627 -0.5 Z"/><text text-anchor="middle" pointer-events="none" font-size="8px" fill="#000000" x="99.47739023279625" y="3" transform="rotate(180 99.47739023279625 0)" font-family="sans-serif">DESTINATION</text></g><g class="relationship" transform="translate(303.6131730282543 81.11824435323794) rotate(354.9874192134471)"><path class="outline" fill="#A5ABB6" stroke="none" d="M 25 0.5 L 88.28363591277369 0.5 L 88.28363591277369 -0.5 L 25 -0.5 Z M 122.72894841277369 0.5 L 186.01258432554738 0.5 L 186.01258432554738 3.5 L 193.01258432554738 0 L 186.01258432554738 -3.5 L 186.01258432554738 -0.5 L 122.72894841277369 -0.5 Z"/><text text-anchor="middle" pointer-events="none" font-size="8px" fill="#000000" x="105.50629216277369" y="3" font-family="sans-serif">ORIGIN</text></g><g class="relationship" transform="translate(-38.54171061862724 422.4044659066151) rotate(207.12900302094306)"><path class="outline" fill="#A5ABB6" stroke="none" d="M 25 0.5 L 57.76934288177556 0.5 L 57.76934288177556 -0.5 L 25 -0.5 Z M 92.21465538177556 0.5 L 124.98399826355111 0.5 L 124.98399826355111 3.5 L 131.98399826355111 0 L 124.98399826355111 -3.5 L 124.98399826355111 -0.5 L 92.21465538177556 -0.5 Z"/><text text-anchor="middle" pointer-events="none" font-size="8px" fill="#000000" x="74.99199913177556" y="3" transform="rotate(180 74.99199913177556 0)" font-family="sans-serif">ORIGIN</text></g><g class="relationship" transform="translate(-38.54171061862724 422.4044659066151) rotate(362.80219205833663)"><path class="outline" fill="#A5ABB6" stroke="none" d="M 25 0.5 L 38.12285469283451 0.5 L 38.12285469283451 -0.5 L 25 -0.5 Z M 97.31035469283451 0.5 L 110.43320938566902 0.5 L 110.43320938566902 3.5 L 117.43320938566902 0 L 110.43320938566902 -3.5 L 110.43320938566902 -0.5 L 97.31035469283451 -0.5 Z"/><text text-anchor="middle" pointer-events="none" font-size="8px" fill="#000000" x="67.71660469283451" y="3" font-family="sans-serif">DESTINATION</text></g><g class="relationship" transform="translate(175.49553241497668 98.24100813844535) rotate(462.2301172956483)"><path class="outline" fill="#A5ABB6" stroke="none" d="M 25 0.5 L 148.68548113111817 0.5 L 148.68548113111817 -0.5 L 25 -0.5 Z M 183.13079363111817 0.5 L 306.81627476223633 0.5 L 306.81627476223633 3.5 L 313.81627476223633 0 L 306.81627476223633 -3.5 L 306.81627476223633 -0.5 L 183.13079363111817 -0.5 Z"/><text text-anchor="middle" pointer-events="none" font-size="8px" fill="#000000" x="165.90813738111817" y="3" transform="rotate(180 165.90813738111817 0)" font-family="sans-serif">ORIGIN</text></g><g class="relationship" transform="translate(175.49553241497668 98.24100813844535) rotate(275.87160275218844)"><path class="outline" fill="#A5ABB6" stroke="none" d="M 25 0.5 L 124.5875048125531 0.5 L 124.5875048125531 -0.5 L 25 -0.5 Z M 183.7750048125531 0.5 L 283.3625096251062 0.5 L 283.3625096251062 3.5 L 290.3625096251062 0 L 283.3625096251062 -3.5 L 283.3625096251062 -0.5 L 183.7750048125531 -0.5 Z"/><text text-anchor="middle" pointer-events="none" font-size="8px" fill="#000000" x="154.1812548125531" y="3" font-family="sans-serif">DESTINATION</text></g><g class="relationship" transform="translate(-21.336774344336867 479.70669012029185) rotate(219.39834596732499)"><path class="outline" fill="#A5ABB6" stroke="none" d="M 25 0.5 L 80.80920961451214 0.5 L 80.80920961451214 -0.5 L 25 -0.5 Z M 115.25452211451214 0.5 L 171.06373172902428 0.5 L 171.06373172902428 3.5 L 178.06373172902428 0 L 171.06373172902428 -3.5 L 171.06373172902428 -0.5 L 115.25452211451214 -0.5 Z"/><text text-anchor="middle" pointer-events="none" font-size="8px" fill="#000000" x="98.03186586451214" y="3" transform="rotate(180 98.03186586451214 0)" font-family="sans-serif">ORIGIN</text></g><g class="relationship" transform="translate(-21.336774344336867 479.70669012029185) rotate(338.07398362327683)"><path class="outline" fill="#A5ABB6" stroke="none" d="M 25 0.5 L 34.3108190613802 0.5 L 34.3108190613802 -0.5 L 25 -0.5 Z M 93.4983190613802 0.5 L 102.8091381227604 0.5 L 102.8091381227604 3.5 L 109.8091381227604 0 L 102.8091381227604 -3.5 L 102.8091381227604 -0.5 L 93.4983190613802 -0.5 Z"/><text text-anchor="middle" pointer-events="none" font-size="8px" fill="#000000" x="63.9045690613802" y="3" font-family="sans-serif">DESTINATION</text></g><g class="relationship" transform="translate(-176.51313107047145 20.95684387459293) rotate(450.3024923595245)"><path class="outline" fill="#A5ABB6" stroke="none" d="M 25 0.5 L 131.84036334505035 0.5 L 131.84036334505035 -0.5 L 25 -0.5 Z M 191.02786334505035 0.5 L 297.8682266901007 0.5 L 297.8682266901007 3.5 L 304.8682266901007 0 L 297.8682266901007 -3.5 L 297.8682266901007 -0.5 L 191.02786334505035 -0.5 Z"/><text text-anchor="middle" pointer-events="none" font-size="8px" fill="#000000" x="161.43411334505035" y="3" transform="rotate(180 161.43411334505035 0)" font-family="sans-serif">DESTINATION</text></g><g class="relationship" transform="translate(-176.51313107047145 20.95684387459293) rotate(291.7350114481256)"><path class="outline" fill="#A5ABB6" stroke="none" d="M 25 0.5 L 142.92311257089057 0.5 L 142.92311257089057 -0.5 L 25 -0.5 Z M 177.36842507089057 0.5 L 295.29153764178113 0.5 L 295.29153764178113 3.5 L 302.29153764178113 0 L 295.29153764178113 -3.5 L 295.29153764178113 -0.5 L 177.36842507089057 -0.5 Z"/><text text-anchor="middle" pointer-events="none" font-size="8px" fill="#000000" x="160.14576882089057" y="3" font-family="sans-serif">ORIGIN</text></g><g class="relationship" transform="translate(52.022999828753086 -357.2791302666335) rotate(505.3396233582951)"><path class="outline" fill="#A5ABB6" stroke="none" d="M 25 0.5 L 44.523816477688726 0.5 L 44.523816477688726 -0.5 L 25 -0.5 Z M 78.96912897768873 0.5 L 98.49294545537745 0.5 L 98.49294545537745 3.5 L 105.49294545537745 0 L 98.49294545537745 -3.5 L 98.49294545537745 -0.5 L 78.96912897768873 -0.5 Z"/><text text-anchor="middle" pointer-events="none" font-size="8px" fill="#000000" x="61.746472727688726" y="3" transform="rotate(180 61.746472727688726 0)" font-family="sans-serif">ORIGIN</text></g><g class="relationship" transform="translate(52.022999828753086 -357.2791302666335) rotate(402.3211512570004)"><path class="outline" fill="#A5ABB6" stroke="none" d="M 25 0.5 L 72.21976975986931 0.5 L 72.21976975986931 -0.5 L 25 -0.5 Z M 131.4072697598693 0.5 L 178.62703951973862 0.5 L 178.62703951973862 3.5 L 185.62703951973862 0 L 178.62703951973862 -3.5 L 178.62703951973862 -0.5 L 131.4072697598693 -0.5 Z"/><text text-anchor="middle" pointer-events="none" font-size="8px" fill="#000000" x="101.81351975986931" y="3" font-family="sans-serif">DESTINATION</text></g><g class="relationship" transform="translate(-84.13934759246692 461.19858639680683) rotate(229.54700669945805)"><path class="outline" fill="#A5ABB6" stroke="none" d="M 25 0.5 L 51.80495836552515 0.5 L 51.80495836552515 -0.5 L 25 -0.5 Z M 86.25027086552515 0.5 L 113.0552292310503 0.5 L 113.0552292310503 3.5 L 120.0552292310503 0 L 113.0552292310503 -3.5 L 113.0552292310503 -0.5 L 86.25027086552515 -0.5 Z"/><text text-anchor="middle" pointer-events="none" font-size="8px" fill="#000000" x="69.02761461552515" y="3" transform="rotate(180 69.02761461552515 0)" font-family="sans-serif">ORIGIN</text></g><g class="relationship" transform="translate(-84.13934759246692 461.19858639680683) rotate(350.3832133457479)"><path class="outline" fill="#A5ABB6" stroke="none" d="M 25 0.5 L 62.175320624966375 0.5 L 62.175320624966375 -0.5 L 25 -0.5 Z M 121.36282062496637 0.5 L 158.53814124993275 0.5 L 158.53814124993275 3.5 L 165.53814124993275 0 L 158.53814124993275 -3.5 L 158.53814124993275 -0.5 L 121.36282062496637 -0.5 Z"/><text text-anchor="middle" pointer-events="none" font-size="8px" fill="#000000" x="91.76907062496637" y="3" font-family="sans-serif">DESTINATION</text></g><g class="relationship" transform="translate(629.4534936487709 149.1598443145884) rotate(218.71157430712373)"><path class="outline" fill="#A5ABB6" stroke="none" d="M 25 0.5 L 48.9050179604571 0.5 L 48.9050179604571 -0.5 L 25 -0.5 Z M 83.3503304604571 0.5 L 107.2553484209142 0.5 L 107.2553484209142 3.5 L 114.2553484209142 0 L 107.2553484209142 -3.5 L 107.2553484209142 -0.5 L 83.3503304604571 -0.5 Z"/><text text-anchor="middle" pointer-events="none" font-size="8px" fill="#000000" x="66.1276742104571" y="3" transform="rotate(180 66.1276742104571 0)" font-family="sans-serif">ORIGIN</text></g><g class="relationship" transform="translate(629.4534936487709 149.1598443145884) rotate(373.3445660004404)"><path class="outline" fill="#A5ABB6" stroke="none" d="M 25 0.5 L 26.702829209328506 0.5 L 26.702829209328506 -0.5 L 25 -0.5 Z M 75.37470420932851 0.5 L 77.07753341865701 0.5 L 77.07753341865701 3.5 L 84.07753341865701 0 L 77.07753341865701 -3.5 L 77.07753341865701 -0.5 L 75.37470420932851 -0.5 Z"/><text text-anchor="middle" pointer-events="none" font-size="8px" fill="#000000" x="51.038766709328506" y="3" font-family="sans-serif">DESTINA…</text></g><g class="relationship" transform="translate(-66.8499296320441 518.4435633735977) rotate(236.39141326626714)"><path class="outline" fill="#A5ABB6" stroke="none" d="M 25 0.5 L 79.91097859831726 0.5 L 79.91097859831726 -0.5 L 25 -0.5 Z M 114.35629109831726 0.5 L 169.26726969663451 0.5 L 169.26726969663451 3.5 L 176.26726969663451 0 L 169.26726969663451 -3.5 L 169.26726969663451 -0.5 L 114.35629109831726 -0.5 Z"/><text text-anchor="middle" pointer-events="none" font-size="8px" fill="#000000" x="97.13363484831726" y="3" transform="rotate(180 97.13363484831726 0)" font-family="sans-serif">ORIGIN</text></g><g class="relationship" transform="translate(-66.8499296320441 518.4435633735977) rotate(332.4254894249667)"><path class="outline" fill="#A5ABB6" stroke="none" d="M 25 0.5 L 63.12086477541246 0.5 L 63.12086477541246 -0.5 L 25 -0.5 Z M 122.30836477541246 0.5 L 160.4292295508249 0.5 L 160.4292295508249 3.5 L 167.4292295508249 0 L 160.4292295508249 -3.5 L 160.4292295508249 -0.5 L 122.30836477541246 -0.5 Z"/><text text-anchor="middle" pointer-events="none" font-size="8px" fill="#000000" x="92.71461477541246" y="3" font-family="sans-serif">DESTINATION</text></g><g class="relationship" transform="translate(167.69560306735048 277.8394524305536) rotate(472.8892059863765)"><path class="outline" fill="#A5ABB6" stroke="none" d="M 25 0.5 L 49.146062931076344 0.5 L 49.146062931076344 -0.5 L 25 -0.5 Z M 108.33356293107634 0.5 L 132.4796258621527 0.5 L 132.4796258621527 3.5 L 139.4796258621527 0 L 132.4796258621527 -3.5 L 132.4796258621527 -0.5 L 108.33356293107634 -0.5 Z"/><text text-anchor="middle" pointer-events="none" font-size="8px" fill="#000000" x="78.73981293107634" y="3" transform="rotate(180 78.73981293107634 0)" font-family="sans-serif">DESTINATION</text></g><g class="relationship" transform="translate(167.69560306735048 277.8394524305536) rotate(251.749665514534)"><path class="outline" fill="#A5ABB6" stroke="none" d="M 25 0.5 L 90.316435276171 0.5 L 90.316435276171 -0.5 L 25 -0.5 Z M 124.761747776171 0.5 L 190.078183052342 0.5 L 190.078183052342 3.5 L 197.078183052342 0 L 190.078183052342 -3.5 L 190.078183052342 -0.5 L 124.761747776171 -0.5 Z"/><text text-anchor="middle" pointer-events="none" font-size="8px" fill="#000000" x="107.539091526171" y="3" transform="rotate(180 107.539091526171 0)" font-family="sans-serif">ORIGIN</text></g><g class="relationship" transform="translate(109.03018611311741 266.25834140213414) rotate(451.8642451667991)"><path class="outline" fill="#A5ABB6" stroke="none" d="M 25 0.5 L 48.504137216955954 0.5 L 48.504137216955954 -0.5 L 25 -0.5 Z M 107.69163721695595 0.5 L 131.1957744339119 0.5 L 131.1957744339119 3.5 L 138.1957744339119 0 L 131.1957744339119 -3.5 L 131.1957744339119 -0.5 L 107.69163721695595 -0.5 Z"/><text text-anchor="middle" pointer-events="none" font-size="8px" fill="#000000" x="78.09788721695595" y="3" transform="rotate(180 78.09788721695595 0)" font-family="sans-serif">DESTINATION</text></g><g class="relationship" transform="translate(109.03018611311741 266.25834140213414) rotate(266.8749063051481)"><path class="outline" fill="#A5ABB6" stroke="none" d="M 25 0.5 L 79.08874398000411 0.5 L 79.08874398000411 -0.5 L 25 -0.5 Z M 113.53405648000411 0.5 L 167.62280046000822 0.5 L 167.62280046000822 3.5 L 174.62280046000822 0 L 167.62280046000822 -3.5 L 167.62280046000822 -0.5 L 113.53405648000411 -0.5 Z"/><text text-anchor="middle" pointer-events="none" font-size="8px" fill="#000000" x="96.31140023000411" y="3" transform="rotate(180 96.31140023000411 0)" font-family="sans-serif">ORIGIN</text></g><g class="relationship" transform="translate(-28.90647014213844 -135.8737654656471) rotate(259.82950910821967)"><path class="outline" fill="#A5ABB6" stroke="none" d="M 25 0.5 L 54.048554529862244 0.5 L 54.048554529862244 -0.5 L 25 -0.5 Z M 88.49386702986224 0.5 L 117.54242155972449 0.5 L 117.54242155972449 3.5 L 124.54242155972449 0 L 117.54242155972449 -3.5 L 117.54242155972449 -0.5 L 88.49386702986224 -0.5 Z"/><text text-anchor="middle" pointer-events="none" font-size="8px" fill="#000000" x="71.27121077986224" y="3" transform="rotate(180 71.27121077986224 0)" font-family="sans-serif">ORIGIN</text></g><g class="relationship" transform="translate(-28.90647014213844 -135.8737654656471) rotate(417.93368223302383)"><path class="outline" fill="#A5ABB6" stroke="none" d="M 25 0.5 L 86.56520147458647 0.5 L 86.56520147458647 -0.5 L 25 -0.5 Z M 145.75270147458647 0.5 L 207.31790294917295 0.5 L 207.31790294917295 3.5 L 214.31790294917295 0 L 207.31790294917295 -3.5 L 207.31790294917295 -0.5 L 145.75270147458647 -0.5 Z"/><text text-anchor="middle" pointer-events="none" font-size="8px" fill="#000000" x="116.15895147458647" y="3" font-family="sans-serif">DESTINATION</text></g><g class="relationship" transform="translate(84.59961452468798 -258.75178714086616) rotate(189.85868270843247)"><path class="outline" fill="#A5ABB6" stroke="none" d="M 25 0.5 L 37.91074990180073 0.5 L 37.91074990180073 -0.5 L 25 -0.5 Z M 97.09824990180073 0.5 L 110.00899980360145 0.5 L 110.00899980360145 3.5 L 117.00899980360145 0 L 110.00899980360145 -3.5 L 110.00899980360145 -0.5 L 97.09824990180073 -0.5 Z"/><text text-anchor="middle" pointer-events="none" font-size="8px" fill="#000000" x="67.50449990180073" y="3" transform="rotate(180 67.50449990180073 0)" font-family="sans-serif">DESTINATION</text></g><g class="relationship" transform="translate(84.59961452468798 -258.75178714086616) rotate(379.3644966762308)"><path class="outline" fill="#A5ABB6" stroke="none" d="M 25 0.5 L 44.548521481500885 0.5 L 44.548521481500885 -0.5 L 25 -0.5 Z M 78.99383398150088 0.5 L 98.54235546300177 0.5 L 98.54235546300177 3.5 L 105.54235546300177 0 L 98.54235546300177 -3.5 L 98.54235546300177 -0.5 L 78.99383398150088 -0.5 Z"/><text text-anchor="middle" pointer-events="none" font-size="8px" fill="#000000" x="61.771177731500885" y="3" font-family="sans-serif">ORIGIN</text></g><g class="relationship" transform="translate(96.6776696001186 -317.43027751064886) rotate(527.2600167412344)"><path class="outline" fill="#A5ABB6" stroke="none" d="M 25 0.5 L 44.81941042176298 0.5 L 44.81941042176298 -0.5 L 25 -0.5 Z M 104.00691042176298 0.5 L 123.82632084352596 0.5 L 123.82632084352596 3.5 L 130.82632084352596 0 L 123.82632084352596 -3.5 L 123.82632084352596 -0.5 L 104.00691042176298 -0.5 Z"/><text text-anchor="middle" pointer-events="none" font-size="8px" fill="#000000" x="74.41316042176298" y="3" transform="rotate(180 74.41316042176298 0)" font-family="sans-serif">DESTINATION</text></g><g class="relationship" transform="translate(96.6776696001186 -317.43027751064886) rotate(402.54982848402244)"><path class="outline" fill="#A5ABB6" stroke="none" d="M 25 0.5 L 54.6681935897073 0.5 L 54.6681935897073 -0.5 L 25 -0.5 Z M 89.1135060897073 0.5 L 118.7816996794146 0.5 L 118.7816996794146 3.5 L 125.7816996794146 0 L 118.7816996794146 -3.5 L 118.7816996794146 -0.5 L 89.1135060897073 -0.5 Z"/><text text-anchor="middle" pointer-events="none" font-size="8px" fill="#000000" x="71.8908498397073" y="3" font-family="sans-serif">ORIGIN</text></g><g class="relationship" transform="translate(153.38904394696908 -336.16579701581827) rotate(525.72523993013)"><path class="outline" fill="#A5ABB6" stroke="none" d="M 25 0.5 L 86.95257096649381 0.5 L 86.95257096649381 -0.5 L 25 -0.5 Z M 121.39788346649381 0.5 L 183.35045443298762 0.5 L 183.35045443298762 3.5 L 190.35045443298762 0 L 183.35045443298762 -3.5 L 183.35045443298762 -0.5 L 121.39788346649381 -0.5 Z"/><text text-anchor="middle" pointer-events="none" font-size="8px" fill="#000000" x="104.17522721649381" y="3" transform="rotate(180 104.17522721649381 0)" font-family="sans-serif">ORIGIN</text></g><g class="relationship" transform="translate(153.38904394696908 -336.16579701581827) rotate(425.7511530577745)"><path class="outline" fill="#A5ABB6" stroke="none" d="M 25 0.5 L 33.09550792572381 0.5 L 33.09550792572381 -0.5 L 25 -0.5 Z M 92.28300792572381 0.5 L 100.37851585144762 0.5 L 100.37851585144762 3.5 L 107.37851585144762 0 L 100.37851585144762 -3.5 L 100.37851585144762 -0.5 L 92.28300792572381 -0.5 Z"/><text text-anchor="middle" pointer-events="none" font-size="8px" fill="#000000" x="62.68925792572381" y="3" font-family="sans-serif">DESTINATION</text></g><g class="relationship" transform="translate(39.93770025653412 -298.5710007464143) rotate(530.7545904782891)"><path class="outline" fill="#A5ABB6" stroke="none" d="M 25 0.5 L 25.97255425969687 0.5 L 25.97255425969687 -0.5 L 25 -0.5 Z M 63.53114800969687 0.5 L 64.50370226939374 0.5 L 64.50370226939374 3.5 L 71.50370226939374 0 L 64.50370226939374 -3.5 L 64.50370226939374 -0.5 L 63.53114800969687 -0.5 Z"/><text text-anchor="middle" pointer-events="none" font-size="8px" fill="#000000" x="44.75185113469687" y="3" transform="rotate(180 44.75185113469687 0)" font-family="sans-serif">DESTI…</text></g><g class="relationship" transform="translate(39.93770025653412 -298.5710007464143) rotate(386.34458666037773)"><path class="outline" fill="#A5ABB6" stroke="none" d="M 25 0.5 L 72.91171484576415 0.5 L 72.91171484576415 -0.5 L 25 -0.5 Z M 107.35702734576415 0.5 L 155.2687421915283 0.5 L 155.2687421915283 3.5 L 162.2687421915283 0 L 155.2687421915283 -3.5 L 155.2687421915283 -0.5 L 107.35702734576415 -0.5 Z"/><text text-anchor="middle" pointer-events="none" font-size="8px" fill="#000000" x="90.13437109576415" y="3" font-family="sans-serif">ORIGIN</text></g><g class="relationship" transform="translate(108.81736810780028 -376.0153505121119) rotate(510.47651065841364)"><path class="outline" fill="#A5ABB6" stroke="none" d="M 25 0.5 L 61.21700524235091 0.5 L 61.21700524235091 -0.5 L 25 -0.5 Z M 120.40450524235091 0.5 L 156.62151048470182 0.5 L 156.62151048470182 3.5 L 163.62151048470182 0 L 156.62151048470182 -3.5 L 156.62151048470182 -0.5 L 120.40450524235091 -0.5 Z"/><text text-anchor="middle" pointer-events="none" font-size="8px" fill="#000000" x="90.81075524235091" y="3" transform="rotate(180 90.81075524235091 0)" font-family="sans-serif">DESTINATION</text></g><g class="relationship" transform="translate(108.81736810780028 -376.0153505121119) rotate(418.3561146117519)"><path class="outline" fill="#A5ABB6" stroke="none" d="M 25 0.5 L 73.5705276904533 0.5 L 73.5705276904533 -0.5 L 25 -0.5 Z M 108.0158401904533 0.5 L 156.5863678809066 0.5 L 156.5863678809066 3.5 L 163.5863678809066 0 L 156.5863678809066 -3.5 L 156.5863678809066 -0.5 L 108.0158401904533 -0.5 Z"/><text text-anchor="middle" pointer-events="none" font-size="8px" fill="#000000" x="90.7931839404533" y="3" font-family="sans-serif">ORIGIN</text></g><g class="relationship" transform="translate(-283.88755666722517 191.90819303534258) rotate(416.3870370342094)"><path class="outline" fill="#A5ABB6" stroke="none" d="M 25 0.5 L 74.68622970715435 0.5 L 74.68622970715435 -0.5 L 25 -0.5 Z M 109.13154220715435 0.5 L 158.8177719143087 0.5 L 158.8177719143087 3.5 L 165.8177719143087 0 L 158.8177719143087 -3.5 L 158.8177719143087 -0.5 L 109.13154220715435 -0.5 Z"/><text text-anchor="middle" pointer-events="none" font-size="8px" fill="#000000" x="91.90888595715435" y="3" font-family="sans-serif">ORIGIN</text></g><g class="relationship" transform="translate(-283.88755666722517 191.90819303534258) rotate(279.1690692169622)"><path class="outline" fill="#A5ABB6" stroke="none" d="M 25 0.5 L 61.50462849424889 0.5 L 61.50462849424889 -0.5 L 25 -0.5 Z M 120.69212849424889 0.5 L 157.19675698849778 0.5 L 157.19675698849778 3.5 L 164.19675698849778 0 L 157.19675698849778 -3.5 L 157.19675698849778 -0.5 L 120.69212849424889 -0.5 Z"/><text text-anchor="middle" pointer-events="none" font-size="8px" fill="#000000" x="91.09837849424889" y="3" font-family="sans-serif">DESTINATION</text></g><g class="relationship" transform="translate(-52.83021657994502 23.171061084306302) rotate(185.13154087409634)"><path class="outline" fill="#A5ABB6" stroke="none" d="M 25 0.5 L 80.13617063306833 0.5 L 80.13617063306833 -0.5 L 25 -0.5 Z M 114.58148313306833 0.5 L 169.71765376613666 0.5 L 169.71765376613666 3.5 L 176.71765376613666 0 L 169.71765376613666 -3.5 L 169.71765376613666 -0.5 L 114.58148313306833 -0.5 Z"/><text text-anchor="middle" pointer-events="none" font-size="8px" fill="#000000" x="97.35882688306833" y="3" transform="rotate(180 97.35882688306833 0)" font-family="sans-serif">ORIGIN</text></g><g class="relationship" transform="translate(-52.83021657994502 23.171061084306302) rotate(376.1643862180414)"><path class="outline" fill="#A5ABB6" stroke="none" d="M 25 0.5 L 45.502262484161406 0.5 L 45.502262484161406 -0.5 L 25 -0.5 Z M 104.6897624841614 0.5 L 125.19202496832281 0.5 L 125.19202496832281 3.5 L 132.1920249683228 0 L 125.19202496832281 -3.5 L 125.19202496832281 -0.5 L 104.6897624841614 -0.5 Z"/><text text-anchor="middle" pointer-events="none" font-size="8px" fill="#000000" x="75.0960124841614" y="3" font-family="sans-serif">DESTINATION</text></g><g class="relationship" transform="translate(-112.52665824448695 25.25848355614856) rotate(188.1127360359161)"><path class="outline" fill="#A5ABB6" stroke="none" d="M 25 0.5 L 38.22636109726372 0.5 L 38.22636109726372 -0.5 L 25 -0.5 Z M 97.41386109726372 0.5 L 110.64022219452744 0.5 L 110.64022219452744 3.5 L 117.64022219452744 0 L 110.64022219452744 -3.5 L 110.64022219452744 -0.5 L 97.41386109726372 -0.5 Z"/><text text-anchor="middle" pointer-events="none" font-size="8px" fill="#000000" x="67.82011109726372" y="3" transform="rotate(180 67.82011109726372 0)" font-family="sans-serif">DESTINATION</text></g><g class="relationship" transform="translate(-112.52665824448695 25.25848355614856) rotate(371.1893501973463)"><path class="outline" fill="#A5ABB6" stroke="none" d="M 25 0.5 L 86.6555608017534 0.5 L 86.6555608017534 -0.5 L 25 -0.5 Z M 121.1008733017534 0.5 L 182.7564341035068 0.5 L 182.7564341035068 3.5 L 189.7564341035068 0 L 182.7564341035068 -3.5 L 182.7564341035068 -0.5 L 121.1008733017534 -0.5 Z"/><text text-anchor="middle" pointer-events="none" font-size="8px" fill="#000000" x="103.8782170517534" y="3" font-family="sans-serif">ORIGIN</text></g><g class="relationship" transform="translate(-32.40520912712495 245.9709887887317) rotate(504.28807838029957)"><path class="outline" fill="#A5ABB6" stroke="none" d="M 25 0.5 L 56.71921706601955 0.5 L 56.71921706601955 -0.5 L 25 -0.5 Z M 115.90671706601955 0.5 L 147.6259341320391 0.5 L 147.6259341320391 3.5 L 154.6259341320391 0 L 147.6259341320391 -3.5 L 147.6259341320391 -0.5 L 115.90671706601955 -0.5 Z"/><text text-anchor="middle" pointer-events="none" font-size="8px" fill="#000000" x="86.31296706601955" y="3" transform="rotate(180 86.31296706601955 0)" font-family="sans-serif">DESTINATION</text></g><g class="relationship" transform="translate(-32.40520912712495 245.9709887887317) rotate(306.0990700281941)"><path class="outline" fill="#A5ABB6" stroke="none" d="M 25 0.5 L 90.068624232622 0.5 L 90.068624232622 -0.5 L 25 -0.5 Z M 124.513936732622 0.5 L 189.582560965244 0.5 L 189.582560965244 3.5 L 196.582560965244 0 L 189.582560965244 -3.5 L 189.582560965244 -0.5 L 124.513936732622 -0.5 Z"/><text text-anchor="middle" pointer-events="none" font-size="8px" fill="#000000" x="107.291280482622" y="3" font-family="sans-serif">ORIGIN</text></g><g class="relationship" transform="translate(30.257720049414708 -127.37779465940437) rotate(241.20578180478805)"><path class="outline" fill="#A5ABB6" stroke="none" d="M 25 0.5 L 55.733570631682525 0.5 L 55.733570631682525 -0.5 L 25 -0.5 Z M 114.92107063168253 0.5 L 145.65464126336505 0.5 L 145.65464126336505 3.5 L 152.65464126336505 0 L 145.65464126336505 -3.5 L 145.65464126336505 -0.5 L 114.92107063168253 -0.5 Z"/><text text-anchor="middle" pointer-events="none" font-size="8px" fill="#000000" x="85.32732063168253" y="3" transform="rotate(180 85.32732063168253 0)" font-family="sans-serif">DESTINATION</text></g><g class="relationship" transform="translate(30.257720049414708 -127.37779465940437) rotate(430.74115821847187)"><path class="outline" fill="#A5ABB6" stroke="none" d="M 25 0.5 L 82.19172302296447 0.5 L 82.19172302296447 -0.5 L 25 -0.5 Z M 116.63703552296447 0.5 L 173.82875854592893 0.5 L 173.82875854592893 3.5 L 180.82875854592893 0 L 173.82875854592893 -3.5 L 173.82875854592893 -0.5 L 116.63703552296447 -0.5 Z"/><text text-anchor="middle" pointer-events="none" font-size="8px" fill="#000000" x="99.41437927296447" y="3" font-family="sans-serif">ORIGIN</text></g><g class="relationship" transform="translate(94.95678798030647 -89.76500322564108) rotate(448.8334818257016)"><path class="outline" fill="#A5ABB6" stroke="none" d="M 25 0.5 L 45.27119370398712 0.5 L 45.27119370398712 -0.5 L 25 -0.5 Z M 104.45869370398712 0.5 L 124.72988740797425 0.5 L 124.72988740797425 3.5 L 131.72988740797425 0 L 124.72988740797425 -3.5 L 124.72988740797425 -0.5 L 104.45869370398712 -0.5 Z"/><text text-anchor="middle" pointer-events="none" font-size="8px" fill="#000000" x="74.86494370398712" y="3" font-family="sans-serif">DESTINATION</text></g><g class="relationship" transform="translate(94.95678798030647 -89.76500322564108) rotate(311.90359332120084)"><path class="outline" fill="#A5ABB6" stroke="none" d="M 25 0.5 L 63.72388241815595 0.5 L 63.72388241815595 -0.5 L 25 -0.5 Z M 98.16919491815595 0.5 L 136.8930773363119 0.5 L 136.8930773363119 3.5 L 143.8930773363119 0 L 136.8930773363119 -3.5 L 136.8930773363119 -0.5 L 98.16919491815595 -0.5 Z"/><text text-anchor="middle" pointer-events="none" font-size="8px" fill="#000000" x="80.94653866815595" y="3" font-family="sans-serif">ORIGIN</text></g><g class="relationship" transform="translate(142.1693869643496 -126.28519059765082) rotate(462.834933677639)"><path class="outline" fill="#A5ABB6" stroke="none" d="M 25 0.5 L 65.99076271846074 0.5 L 65.99076271846074 -0.5 L 25 -0.5 Z M 125.17826271846074 0.5 L 166.1690254369215 0.5 L 166.1690254369215 3.5 L 173.1690254369215 0 L 166.1690254369215 -3.5 L 166.1690254369215 -0.5 L 125.17826271846074 -0.5 Z"/><text text-anchor="middle" pointer-events="none" font-size="8px" fill="#000000" x="95.58451271846074" y="3" transform="rotate(180 95.58451271846074 0)" font-family="sans-serif">DESTINATION</text></g><g class="relationship" transform="translate(142.1693869643496 -126.28519059765082) rotate(306.33213099688487)"><path class="outline" fill="#A5ABB6" stroke="none" d="M 25 0.5 L 34.62877825683381 0.5 L 34.62877825683381 -0.5 L 25 -0.5 Z M 69.07409075683381 0.5 L 78.70286901366762 0.5 L 78.70286901366762 3.5 L 85.70286901366762 0 L 78.70286901366762 -3.5 L 78.70286901366762 -0.5 L 69.07409075683381 -0.5 Z"/><text text-anchor="middle" pointer-events="none" font-size="8px" fill="#000000" x="51.85143450683381" y="3" font-family="sans-serif">ORIGIN</text></g><g class="relationship" transform="translate(197.62279576273883 -103.61571230035396) rotate(480.2536480299177)"><path class="outline" fill="#A5ABB6" stroke="none" d="M 25 0.5 L 65.62553542962956 0.5 L 65.62553542962956 -0.5 L 25 -0.5 Z M 124.81303542962956 0.5 L 165.43857085925913 0.5 L 165.43857085925913 3.5 L 172.43857085925913 0 L 165.43857085925913 -3.5 L 165.43857085925913 -0.5 L 124.81303542962956 -0.5 Z"/><text text-anchor="middle" pointer-events="none" font-size="8px" fill="#000000" x="95.21928542962956" y="3" transform="rotate(180 95.21928542962956 0)" font-family="sans-serif">DESTINATION</text></g><g class="relationship" transform="translate(197.62279576273883 -103.61571230035396) rotate(275.1770900428795)"><path class="outline" fill="#A5ABB6" stroke="none" d="M 25 0.5 L 35.43206584430264 0.5 L 35.43206584430264 -0.5 L 25 -0.5 Z M 69.87737834430264 0.5 L 80.30944418860528 0.5 L 80.30944418860528 3.5 L 87.30944418860528 0 L 80.30944418860528 -3.5 L 80.30944418860528 -0.5 L 69.87737834430264 -0.5 Z"/><text text-anchor="middle" pointer-events="none" font-size="8px" fill="#000000" x="52.65472209430264" y="3" font-family="sans-serif">ORIGIN</text></g><g class="relationship" transform="translate(150.26520247975304 -67.03699709173802) rotate(471.2573663426805)"><path class="outline" fill="#A5ABB6" stroke="none" d="M 25 0.5 L 38.78123252797164 0.5 L 38.78123252797164 -0.5 L 25 -0.5 Z M 97.96873252797164 0.5 L 111.74996505594328 0.5 L 111.74996505594328 3.5 L 118.74996505594328 0 L 111.74996505594328 -3.5 L 111.74996505594328 -0.5 L 97.96873252797164 -0.5 Z"/><text text-anchor="middle" pointer-events="none" font-size="8px" fill="#000000" x="68.37498252797164" y="3" transform="rotate(180 68.37498252797164 0)" font-family="sans-serif">DESTINATION</text></g><g class="relationship" transform="translate(150.26520247975304 -67.03699709173802) rotate(291.17300550165135)"><path class="outline" fill="#A5ABB6" stroke="none" d="M 25 0.5 L 58.86498064386821 0.5 L 58.86498064386821 -0.5 L 25 -0.5 Z M 93.31029314386821 0.5 L 127.17527378773642 0.5 L 127.17527378773642 3.5 L 134.17527378773642 0 L 127.17527378773642 -3.5 L 127.17527378773642 -0.5 L 93.31029314386821 -0.5 Z"/><text text-anchor="middle" pointer-events="none" font-size="8px" fill="#000000" x="76.08763689386821" y="3" font-family="sans-serif">ORIGIN</text></g><g class="relationship" transform="translate(-85.49095534771806 -27.991569288287945) rotate(528.8634575523046)"><path class="outline" fill="#A5ABB6" stroke="none" d="M 25 0.5 L 52.644950652538995 0.5 L 52.644950652538995 -0.5 L 25 -0.5 Z M 111.832450652539 0.5 L 139.477401305078 0.5 L 139.477401305078 3.5 L 146.477401305078 0 L 139.477401305078 -3.5 L 139.477401305078 -0.5 L 111.832450652539 -0.5 Z"/><text text-anchor="middle" pointer-events="none" font-size="8px" fill="#000000" x="82.238700652539" y="3" transform="rotate(180 82.238700652539 0)" font-family="sans-serif">DESTINATION</text></g><g class="relationship" transform="translate(-85.49095534771806 -27.991569288287945) rotate(387.3347482809241)"><path class="outline" fill="#A5ABB6" stroke="none" d="M 25 0.5 L 82.63793941492182 0.5 L 82.63793941492182 -0.5 L 25 -0.5 Z M 117.08325191492182 0.5 L 174.72119132984363 0.5 L 174.72119132984363 3.5 L 181.72119132984363 0 L 174.72119132984363 -3.5 L 174.72119132984363 -0.5 L 117.08325191492182 -0.5 Z"/><text text-anchor="middle" pointer-events="none" font-size="8px" fill="#000000" x="99.86059566492182" y="3" font-family="sans-serif">ORIGIN</text></g><g class="relationship" transform="translate(253.0154267476125 -80.86287233262985) rotate(496.33864349466734)"><path class="outline" fill="#A5ABB6" stroke="none" d="M 25 0.5 L 86.31414914928288 0.5 L 86.31414914928288 -0.5 L 25 -0.5 Z M 120.75946164928288 0.5 L 182.07361079856577 0.5 L 182.07361079856577 3.5 L 189.07361079856577 0 L 182.07361079856577 -3.5 L 182.07361079856577 -0.5 L 120.75946164928288 -0.5 Z"/><text text-anchor="middle" pointer-events="none" font-size="8px" fill="#000000" x="103.53680539928288" y="3" transform="rotate(180 103.53680539928288 0)" font-family="sans-serif">ORIGIN</text></g><g class="relationship" transform="translate(253.0154267476125 -80.86287233262985) rotate(251.41561418470326)"><path class="outline" fill="#A5ABB6" stroke="none" d="M 25 0.5 L 37.910824629158995 0.5 L 37.910824629158995 -0.5 L 25 -0.5 Z M 97.098324629159 0.5 L 110.00914925831799 0.5 L 110.00914925831799 3.5 L 117.00914925831799 0 L 110.00914925831799 -3.5 L 110.00914925831799 -0.5 L 97.098324629159 -0.5 Z"/><text text-anchor="middle" pointer-events="none" font-size="8px" fill="#000000" x="67.504574629159" y="3" transform="rotate(180 67.504574629159 0)" font-family="sans-serif">DESTINATION</text></g><g class="relationship" transform="translate(205.6807939313666 -44.330899894014074) rotate(494.0233196432513)"><path class="outline" fill="#A5ABB6" stroke="none" d="M 25 0.5 L 44.27376059971105 0.5 L 44.27376059971105 -0.5 L 25 -0.5 Z M 103.46126059971105 0.5 L 122.7350211994221 0.5 L 122.7350211994221 3.5 L 129.7350211994221 0 L 122.7350211994221 -3.5 L 122.7350211994221 -0.5 L 103.46126059971105 -0.5 Z"/><text text-anchor="middle" pointer-events="none" font-size="8px" fill="#000000" x="73.86751059971105" y="3" transform="rotate(180 73.86751059971105 0)" font-family="sans-serif">DESTINATION</text></g><g class="relationship" transform="translate(205.6807939313666 -44.330899894014074) rotate(270.69506156574306)"><path class="outline" fill="#A5ABB6" stroke="none" d="M 25 0.5 L 64.85168881152518 0.5 L 64.85168881152518 -0.5 L 25 -0.5 Z M 99.29700131152518 0.5 L 139.14869012305036 0.5 L 139.14869012305036 3.5 L 146.14869012305036 0 L 139.14869012305036 -3.5 L 139.14869012305036 -0.5 L 99.29700131152518 -0.5 Z"/><text text-anchor="middle" pointer-events="none" font-size="8px" fill="#000000" x="82.07434506152518" y="3" font-family="sans-serif">ORIGIN</text></g><g class="relationship" transform="translate(-268.9569429025491 262.3507674624657) rotate(404.28610090203944)"><path class="outline" fill="#A5ABB6" stroke="none" d="M 25 0.5 L 42.62912610961692 0.5 L 42.62912610961692 -0.5 L 25 -0.5 Z M 77.07443860961692 0.5 L 94.70356471923384 0.5 L 94.70356471923384 3.5 L 101.70356471923384 0 L 94.70356471923384 -3.5 L 94.70356471923384 -0.5 L 77.07443860961692 -0.5 Z"/><text text-anchor="middle" pointer-events="none" font-size="8px" fill="#000000" x="59.85178235961692" y="3" font-family="sans-serif">ORIGIN</text></g><g class="relationship" transform="translate(-268.9569429025491 262.3507674624657) rotate(276.2970989820861)"><path class="outline" fill="#A5ABB6" stroke="none" d="M 25 0.5 L 37.610153820027165 0.5 L 37.610153820027165 -0.5 L 25 -0.5 Z M 96.79765382002716 0.5 L 109.40780764005433 0.5 L 109.40780764005433 3.5 L 116.40780764005433 0 L 109.40780764005433 -3.5 L 109.40780764005433 -0.5 L 96.79765382002716 -0.5 Z"/><text text-anchor="middle" pointer-events="none" font-size="8px" fill="#000000" x="67.20390382002716" y="3" font-family="sans-serif">DESTINATION</text></g><g class="relationship" transform="translate(-108.78354599461728 85.06950287781285) rotate(525.7548887899507)"><path class="outline" fill="#A5ABB6" stroke="none" d="M 25 0.5 L 53.9035703004414 0.5 L 53.9035703004414 -0.5 L 25 -0.5 Z M 88.3488828004414 0.5 L 117.2524531008828 0.5 L 117.2524531008828 3.5 L 124.2524531008828 0 L 117.2524531008828 -3.5 L 117.2524531008828 -0.5 L 88.3488828004414 -0.5 Z"/><text text-anchor="middle" pointer-events="none" font-size="8px" fill="#000000" x="71.1262265504414" y="3" transform="rotate(180 71.1262265504414 0)" font-family="sans-serif">ORIGIN</text></g><g class="relationship" transform="translate(-108.78354599461728 85.06950287781285) rotate(354.9909383725227)"><path class="outline" fill="#A5ABB6" stroke="none" d="M 25 0.5 L 70.76844428613774 0.5 L 70.76844428613774 -0.5 L 25 -0.5 Z M 129.95594428613774 0.5 L 175.72438857227547 0.5 L 175.72438857227547 3.5 L 182.72438857227547 0 L 175.72438857227547 -3.5 L 175.72438857227547 -0.5 L 129.95594428613774 -0.5 Z"/><text text-anchor="middle" pointer-events="none" font-size="8px" fill="#000000" x="100.36219428613774" y="3" font-family="sans-serif">DESTINATION</text></g><g class="relationship" transform="translate(-305.8757708573641 309.5449260700437) rotate(377.9223776638542)"><path class="outline" fill="#A5ABB6" stroke="none" d="M 25 0.5 L 33.97117973148889 0.5 L 33.97117973148889 -0.5 L 25 -0.5 Z M 93.15867973148889 0.5 L 102.12985946297778 0.5 L 102.12985946297778 3.5 L 109.12985946297778 0 L 102.12985946297778 -3.5 L 102.12985946297778 -0.5 L 93.15867973148889 -0.5 Z"/><text text-anchor="middle" pointer-events="none" font-size="8px" fill="#000000" x="63.56492973148889" y="3" font-family="sans-serif">DESTINATION</text></g><g class="relationship" transform="translate(-305.8757708573641 309.5449260700437) rotate(285.60243392861554)"><path class="outline" fill="#A5ABB6" stroke="none" d="M 25 0.5 L 76.74324264631984 0.5 L 76.74324264631984 -0.5 L 25 -0.5 Z M 111.18855514631984 0.5 L 162.93179779263968 0.5 L 162.93179779263968 3.5 L 169.93179779263968 0 L 162.93179779263968 -3.5 L 162.93179779263968 -0.5 L 111.18855514631984 -0.5 Z"/><text text-anchor="middle" pointer-events="none" font-size="8px" fill="#000000" x="93.96589889631984" y="3" font-family="sans-serif">ORIGIN</text></g><g class="relationship" transform="translate(-68.50005579957069 129.1025090769127) rotate(182.26230782870653)"><path class="outline" fill="#A5ABB6" stroke="none" d="M 25 0.5 L 59.451739500423045 0.5 L 59.451739500423045 -0.5 L 25 -0.5 Z M 118.63923950042305 0.5 L 153.0909790008461 0.5 L 153.0909790008461 3.5 L 160.0909790008461 0 L 153.0909790008461 -3.5 L 153.0909790008461 -0.5 L 118.63923950042305 -0.5 Z"/><text text-anchor="middle" pointer-events="none" font-size="8px" fill="#000000" x="89.04548950042305" y="3" transform="rotate(180 89.04548950042305 0)" font-family="sans-serif">DESTINATION</text></g><g class="relationship" transform="translate(-68.50005579957069 129.1025090769127) rotate(339.541297360625)"><path class="outline" fill="#A5ABB6" stroke="none" d="M 25 0.5 L 68.2106581208573 0.5 L 68.2106581208573 -0.5 L 25 -0.5 Z M 102.6559706208573 0.5 L 145.8666287417146 0.5 L 145.8666287417146 3.5 L 152.8666287417146 0 L 145.8666287417146 -3.5 L 145.8666287417146 -0.5 L 102.6559706208573 -0.5 Z"/><text text-anchor="middle" pointer-events="none" font-size="8px" fill="#000000" x="85.4333143708573" y="3" font-family="sans-serif">ORIGIN</text></g><g class="relationship" transform="translate(-328.3504026747019 254.10085616707343) rotate(392.797170821587)"><path class="outline" fill="#A5ABB6" stroke="none" d="M 25 0.5 L 68.55698428981788 0.5 L 68.55698428981788 -0.5 L 25 -0.5 Z M 103.00229678981788 0.5 L 146.55928107963575 0.5 L 146.55928107963575 3.5 L 153.55928107963575 0 L 146.55928107963575 -3.5 L 146.55928107963575 -0.5 L 103.00229678981788 -0.5 Z"/><text text-anchor="middle" pointer-events="none" font-size="8px" fill="#000000" x="85.77964053981788" y="3" font-family="sans-serif">ORIGIN</text></g><g class="relationship" transform="translate(-328.3504026747019 254.10085616707343) rotate(299.5161460616737)"><path class="outline" fill="#A5ABB6" stroke="none" d="M 25 0.5 L 42.92449009630458 0.5 L 42.92449009630458 -0.5 L 25 -0.5 Z M 102.11199009630458 0.5 L 120.03648019260916 0.5 L 120.03648019260916 3.5 L 127.03648019260916 0 L 120.03648019260916 -3.5 L 120.03648019260916 -0.5 L 102.11199009630458 -0.5 Z"/><text text-anchor="middle" pointer-events="none" font-size="8px" fill="#000000" x="72.51824009630458" y="3" font-family="sans-serif">DESTINATION</text></g><g class="relationship" transform="translate(-210.07025384886182 464.8451348638823) rotate(285.5903680712904)"><path class="outline" fill="#A5ABB6" stroke="none" d="M 25 0.5 L 38.467409545153984 0.5 L 38.467409545153984 -0.5 L 25 -0.5 Z M 72.91272204515398 0.5 L 86.38013159030797 0.5 L 86.38013159030797 3.5 L 93.38013159030797 0 L 86.38013159030797 -3.5 L 86.38013159030797 -0.5 L 72.91272204515398 -0.5 Z"/><text text-anchor="middle" pointer-events="none" font-size="8px" fill="#000000" x="55.690065795153984" y="3" font-family="sans-serif">ORIGIN</text></g><g class="relationship" transform="translate(-210.07025384886182 464.8451348638823) rotate(318.79836615599197)"><path class="outline" fill="#A5ABB6" stroke="none" d="M 25 0.5 L 51.12307128445629 0.5 L 51.12307128445629 -0.5 L 25 -0.5 Z M 110.31057128445629 0.5 L 136.43364256891257 0.5 L 136.43364256891257 3.5 L 143.43364256891257 0 L 136.43364256891257 -3.5 L 136.43364256891257 -0.5 L 110.31057128445629 -0.5 Z"/><text text-anchor="middle" pointer-events="none" font-size="8px" fill="#000000" x="80.71682128445629" y="3" font-family="sans-serif">DESTINATION</text></g><g class="relationship" transform="translate(50.42226220290131 236.22126213705354) rotate(498.66121817506087)"><path class="outline" fill="#A5ABB6" stroke="none" d="M 25 0.5 L 55.98498407932183 0.5 L 55.98498407932183 -0.5 L 25 -0.5 Z M 115.17248407932183 0.5 L 146.15746815864367 0.5 L 146.15746815864367 3.5 L 153.15746815864367 0 L 146.15746815864367 -3.5 L 146.15746815864367 -0.5 L 115.17248407932183 -0.5 Z"/><text text-anchor="middle" pointer-events="none" font-size="8px" fill="#000000" x="85.57873407932183" y="3" transform="rotate(180 85.57873407932183 0)" font-family="sans-serif">DESTINATION</text></g><g class="relationship" transform="translate(50.42226220290131 236.22126213705354) rotate(285.7440004596323)"><path class="outline" fill="#A5ABB6" stroke="none" d="M 25 0.5 L 67.22110225221998 0.5 L 67.22110225221998 -0.5 L 25 -0.5 Z M 101.66641475221998 0.5 L 143.88751700443996 0.5 L 143.88751700443996 3.5 L 150.88751700443996 0 L 143.88751700443996 -3.5 L 143.88751700443996 -0.5 L 101.66641475221998 -0.5 Z"/><text text-anchor="middle" pointer-events="none" font-size="8px" fill="#000000" x="84.44375850221998" y="3" font-family="sans-serif">ORIGIN</text></g><g class="relationship" transform="translate(7.552913957494475 194.40739440867597) rotate(479.67929259547225)"><path class="outline" fill="#A5ABB6" stroke="none" d="M 25 0.5 L 58.6918910444234 0.5 L 58.6918910444234 -0.5 L 25 -0.5 Z M 117.8793910444234 0.5 L 151.5712820888468 0.5 L 151.5712820888468 3.5 L 158.5712820888468 0 L 151.5712820888468 -3.5 L 151.5712820888468 -0.5 L 117.8793910444234 -0.5 Z"/><text text-anchor="middle" pointer-events="none" font-size="8px" fill="#000000" x="88.2856410444234" y="3" transform="rotate(180 88.2856410444234 0)" font-family="sans-serif">DESTINATION</text></g><g class="relationship" transform="translate(7.552913957494475 194.40739440867597) rotate(305.4008502288301)"><path class="outline" fill="#A5ABB6" stroke="none" d="M 25 0.5 L 57.471424099149914 0.5 L 57.471424099149914 -0.5 L 25 -0.5 Z M 91.91673659914991 0.5 L 124.38816069829983 0.5 L 124.38816069829983 3.5 L 131.38816069829983 0 L 124.38816069829983 -3.5 L 124.38816069829983 -0.5 L 91.91673659914991 -0.5 Z"/><text text-anchor="middle" pointer-events="none" font-size="8px" fill="#000000" x="74.69408034914991" y="3" font-family="sans-serif">ORIGIN</text></g><g class="relationship" transform="translate(-38.334338767423255 -76.80960922052637) rotate(497.2847962943375)"><path class="outline" fill="#A5ABB6" stroke="none" d="M 25 0.5 L 113.29409369433083 0.5 L 113.29409369433083 -0.5 L 25 -0.5 Z M 172.48159369433083 0.5 L 260.77568738866165 0.5 L 260.77568738866165 3.5 L 267.77568738866165 0 L 260.77568738866165 -3.5 L 260.77568738866165 -0.5 L 172.48159369433083 -0.5 Z"/><text text-anchor="middle" pointer-events="none" font-size="8px" fill="#000000" x="142.88784369433083" y="3" transform="rotate(180 142.88784369433083 0)" font-family="sans-serif">DESTINATION</text></g><g class="relationship" transform="translate(-38.334338767423255 -76.80960922052637) rotate(330.6014026033172)"><path class="outline" fill="#A5ABB6" stroke="none" d="M 25 0.5 L 120.51013201097743 0.5 L 120.51013201097743 -0.5 L 25 -0.5 Z M 154.95544451097743 0.5 L 250.46557652195486 0.5 L 250.46557652195486 3.5 L 257.46557652195486 0 L 250.46557652195486 -3.5 L 250.46557652195486 -0.5 L 154.95544451097743 -0.5 Z"/><text text-anchor="middle" pointer-events="none" font-size="8px" fill="#000000" x="137.73278826097743" y="3" font-family="sans-serif">ORIGIN</text></g></g><g class="layer nodes"><g class="node" transform="translate(735.5858944327242,174.33566208745398)"><circle class="outline" cx="0" cy="0" r="25" fill="#ECB5C9" stroke="#da7298" stroke-width="2px"/><text text-anchor="middle" pointer-events="none" font-family="sans-serif" dy="1.5625" font-size="25" fill="#2A2C34"/><text text-anchor="middle" pointer-events="none" x="0" y="5" font-size="10px" fill="#2A2C34" font-family="sans-serif"> DAY</text></g><g class="node" transform="translate(-178.25465820444686,350.82047336852986)"><circle class="outline" cx="0" cy="0" r="25" fill="#ECB5C9" stroke="#da7298" stroke-width="2px"/><text text-anchor="middle" pointer-events="none" font-family="sans-serif" dy="1.5625" font-size="25" fill="#2A2C34"/><text text-anchor="middle" pointer-events="none" x="0" y="5" font-size="10px" fill="#2A2C34" font-family="sans-serif"> LAX</text></g><g class="node" transform="translate(-76.29889918682166,205.29404244544142)"><circle class="outline" cx="0" cy="0" r="25" fill="#4C8EDA" stroke="#2870c2" stroke-width="2px"/><text text-anchor="middle" pointer-events="none" font-family="sans-serif" dy="1.5625" font-size="25" fill="#FFFFFF"/><text text-anchor="middle" pointer-events="none" x="0" y="5" font-size="10px" fill="#FFFFFF" font-family="sans-serif"> 11/30/20…</text></g><g class="node" transform="translate(98.14752267599117,66.93240204648856)"><circle class="outline" cx="0" cy="0" r="25" fill="#ECB5C9" stroke="#da7298" stroke-width="2px"/><text text-anchor="middle" pointer-events="none" font-family="sans-serif" dy="1.5625" font-size="25" fill="#2A2C34"/><text text-anchor="middle" pointer-events="none" x="0" y="5" font-size="10px" fill="#2A2C34" font-family="sans-serif"> ORD</text></g><g class="node" transform="translate(350.5740712039952,44.21610263432697)"><circle class="outline" cx="0" cy="0" r="25" fill="#4C8EDA" stroke="#2870c2" stroke-width="2px"/><text text-anchor="middle" pointer-events="none" font-family="sans-serif" dy="1.5625" font-size="25" fill="#FFFFFF"/><text text-anchor="middle" pointer-events="none" x="0" y="5" font-size="10px" fill="#FFFFFF" font-family="sans-serif"> 11/29/20…</text></g><g class="node" transform="translate(520.7919762380001,62.069507894185435)"><circle class="outline" cx="0" cy="0" r="25" fill="#ECB5C9" stroke="#da7298" stroke-width="2px"/><text text-anchor="middle" pointer-events="none" font-family="sans-serif" dy="1.5625" font-size="25" fill="#2A2C34"/><text text-anchor="middle" pointer-events="none" x="0" y="5" font-size="10px" fill="#2A2C34" font-family="sans-serif"> MSP</text></g><g class="node" transform="translate(661.2740076205555,32.47097345996126)"><circle class="outline" cx="0" cy="0" r="25" fill="#4C8EDA" stroke="#2870c2" stroke-width="2px"/><text text-anchor="middle" pointer-events="none" font-family="sans-serif" dy="1.5625" font-size="25" fill="#FFFFFF"/><text text-anchor="middle" pointer-events="none" x="0" y="5" font-size="10px" fill="#FFFFFF" font-family="sans-serif"> 11/25/20…</text></g><g class="node" transform="translate(48.54890102611003,370.9441103394701)"><circle class="outline" cx="0" cy="0" r="25" fill="#4C8EDA" stroke="#2870c2" stroke-width="2px"/><text text-anchor="middle" pointer-events="none" font-family="sans-serif" dy="1.5625" font-size="25" fill="#FFFFFF"/><text text-anchor="middle" pointer-events="none" x="0" y="5" font-size="10px" fill="#FFFFFF" font-family="sans-serif"> 11/29/20…</text></g><g class="node" transform="translate(278.6889475542379,277.5620856880866)"><circle class="outline" cx="0" cy="0" r="25" fill="#ECB5C9" stroke="#da7298" stroke-width="2px"/><text text-anchor="middle" pointer-events="none" font-family="sans-serif" dy="1.5625" font-size="25" fill="#2A2C34"/><text text-anchor="middle" pointer-events="none" x="0" y="5" font-size="10px" fill="#2A2C34" font-family="sans-serif"> LAS</text></g><g class="node" transform="translate(188.81288309407753,198.70708106380366)"><circle class="outline" cx="0" cy="0" r="25" fill="#4C8EDA" stroke="#2870c2" stroke-width="2px"/><text text-anchor="middle" pointer-events="none" font-family="sans-serif" dy="1.5625" font-size="25" fill="#FFFFFF"/><text text-anchor="middle" pointer-events="none" x="0" y="5" font-size="10px" fill="#FFFFFF" font-family="sans-serif"> 11/29/20…</text></g><g class="node" transform="translate(239.21884888841976,166.3067188464204)"><circle class="outline" cx="0" cy="0" r="25" fill="#4C8EDA" stroke="#2870c2" stroke-width="2px"/><text text-anchor="middle" pointer-events="none" font-family="sans-serif" dy="1.5625" font-size="25" fill="#FFFFFF"/><text text-anchor="middle" pointer-events="none" x="0" y="5" font-size="10px" fill="#FFFFFF" font-family="sans-serif"> 11/29/20…</text></g><g class="node" transform="translate(292.9943045359207,-2.405469237922564)"><circle class="outline" cx="0" cy="0" r="25" fill="#4C8EDA" stroke="#2870c2" stroke-width="2px"/><text text-anchor="middle" pointer-events="none" font-family="sans-serif" dy="1.5625" font-size="25" fill="#FFFFFF"/><text text-anchor="middle" pointer-events="none" x="0" y="5" font-size="10px" fill="#FFFFFF" font-family="sans-serif"> 11/29/20…</text></g><g class="node" transform="translate(207.75696707749003,-215.46699671728285)"><circle class="outline" cx="0" cy="0" r="25" fill="#ECB5C9" stroke="#da7298" stroke-width="2px"/><text text-anchor="middle" pointer-events="none" font-family="sans-serif" dy="1.5625" font-size="25" fill="#2A2C34"/><text text-anchor="middle" pointer-events="none" x="0" y="5" font-size="10px" fill="#2A2C34" font-family="sans-serif"> DEN</text></g><g class="node" transform="translate(408.17542908615457,-119.64844617549093)"><circle class="outline" cx="0" cy="0" r="25" fill="#4C8EDA" stroke="#2870c2" stroke-width="2px"/><text text-anchor="middle" pointer-events="none" font-family="sans-serif" dy="1.5625" font-size="25" fill="#FFFFFF"/><text text-anchor="middle" pointer-events="none" x="0" y="5" font-size="10px" fill="#FFFFFF" font-family="sans-serif"> 11/29/20…</text></g><g class="node" transform="translate(606.7119298507641,204.57539772478205)"><circle class="outline" cx="0" cy="0" r="25" fill="#4C8EDA" stroke="#2870c2" stroke-width="2px"/><text text-anchor="middle" pointer-events="none" font-family="sans-serif" dy="1.5625" font-size="25" fill="#FFFFFF"/><text text-anchor="middle" pointer-events="none" x="0" y="5" font-size="10px" fill="#FFFFFF" font-family="sans-serif"> 11/23/20…</text></g><g class="node" transform="translate(695.6859218303222,81.42288019098322)"><circle class="outline" cx="0" cy="0" r="25" fill="#4C8EDA" stroke="#2870c2" stroke-width="2px"/><text text-anchor="middle" pointer-events="none" font-family="sans-serif" dy="1.5625" font-size="25" fill="#FFFFFF"/><text text-anchor="middle" pointer-events="none" x="0" y="5" font-size="10px" fill="#FFFFFF" font-family="sans-serif"> 11/20/20…</text></g><g class="node" transform="translate(636.4345979018545,89.68428612314486)"><circle class="outline" cx="0" cy="0" r="25" fill="#4C8EDA" stroke="#2870c2" stroke-width="2px"/><text text-anchor="middle" pointer-events="none" font-family="sans-serif" dy="1.5625" font-size="25" fill="#FFFFFF"/><text text-anchor="middle" pointer-events="none" x="0" y="5" font-size="10px" fill="#FFFFFF" font-family="sans-serif"> 11/11/20…</text></g><g class="node" transform="translate(349.6526363510243,119.04954565387516)"><circle class="outline" cx="0" cy="0" r="25" fill="#4C8EDA" stroke="#2870c2" stroke-width="2px"/><text text-anchor="middle" pointer-events="none" font-family="sans-serif" dy="1.5625" font-size="25" fill="#FFFFFF"/><text text-anchor="middle" pointer-events="none" x="0" y="5" font-size="10px" fill="#FFFFFF" font-family="sans-serif"> 11/29/20…</text></g><g class="node" transform="translate(303.6131730282543,81.11824435323794)"><circle class="outline" cx="0" cy="0" r="25" fill="#4C8EDA" stroke="#2870c2" stroke-width="2px"/><text text-anchor="middle" pointer-events="none" font-family="sans-serif" dy="1.5625" font-size="25" fill="#FFFFFF"/><text text-anchor="middle" pointer-events="none" x="0" y="5" font-size="10px" fill="#FFFFFF" font-family="sans-serif"> 11/30/20…</text></g><g class="node" transform="translate(-38.54171061862724,422.4044659066151)"><circle class="outline" cx="0" cy="0" r="25" fill="#4C8EDA" stroke="#2870c2" stroke-width="2px"/><text text-anchor="middle" pointer-events="none" font-family="sans-serif" dy="1.5625" font-size="25" fill="#FFFFFF"/><text text-anchor="middle" pointer-events="none" x="0" y="5" font-size="10px" fill="#FFFFFF" font-family="sans-serif"> 11/3/2015</text></g><g class="node" transform="translate(103.72118677583822,429.36773818576836)"><circle class="outline" cx="0" cy="0" r="25" fill="#ECB5C9" stroke="#da7298" stroke-width="2px"/><text text-anchor="middle" pointer-events="none" font-family="sans-serif" dy="1.5625" font-size="25" fill="#2A2C34"/><text text-anchor="middle" pointer-events="none" x="0" y="5" font-size="10px" fill="#2A2C34" font-family="sans-serif"> SMF</text></g><g class="node" transform="translate(175.49553241497668,98.24100813844535)"><circle class="outline" cx="0" cy="0" r="25" fill="#4C8EDA" stroke="#2870c2" stroke-width="2px"/><text text-anchor="middle" pointer-events="none" font-family="sans-serif" dy="1.5625" font-size="25" fill="#FFFFFF"/><text text-anchor="middle" pointer-events="none" x="0" y="5" font-size="10px" fill="#FFFFFF" font-family="sans-serif"> 11/30/20…</text></g><g class="node" transform="translate(-21.336774344336867,479.70669012029185)"><circle class="outline" cx="0" cy="0" r="25" fill="#4C8EDA" stroke="#2870c2" stroke-width="2px"/><text text-anchor="middle" pointer-events="none" font-family="sans-serif" dy="1.5625" font-size="25" fill="#FFFFFF"/><text text-anchor="middle" pointer-events="none" x="0" y="5" font-size="10px" fill="#FFFFFF" font-family="sans-serif"> 11/1/2015</text></g><g class="node" transform="translate(-176.51313107047145,20.95684387459293)"><circle class="outline" cx="0" cy="0" r="25" fill="#4C8EDA" stroke="#2870c2" stroke-width="2px"/><text text-anchor="middle" pointer-events="none" font-family="sans-serif" dy="1.5625" font-size="25" fill="#FFFFFF"/><text text-anchor="middle" pointer-events="none" x="0" y="5" font-size="10px" fill="#FFFFFF" font-family="sans-serif"> 11/29/20…</text></g><g class="node" transform="translate(-55.31234576282227,-283.0663793382573)"><circle class="outline" cx="0" cy="0" r="25" fill="#ECB5C9" stroke="#da7298" stroke-width="2px"/><text text-anchor="middle" pointer-events="none" font-family="sans-serif" dy="1.5625" font-size="25" fill="#2A2C34"/><text text-anchor="middle" pointer-events="none" x="0" y="5" font-size="10px" fill="#2A2C34" font-family="sans-serif"> SFO</text></g><g class="node" transform="translate(52.022999828753086,-357.2791302666335)"><circle class="outline" cx="0" cy="0" r="25" fill="#4C8EDA" stroke="#2870c2" stroke-width="2px"/><text text-anchor="middle" pointer-events="none" font-family="sans-serif" dy="1.5625" font-size="25" fill="#FFFFFF"/><text text-anchor="middle" pointer-events="none" x="0" y="5" font-size="10px" fill="#FFFFFF" font-family="sans-serif"> 11/30/20…</text></g><g class="node" transform="translate(-84.13934759246692,461.19858639680683)"><circle class="outline" cx="0" cy="0" r="25" fill="#4C8EDA" stroke="#2870c2" stroke-width="2px"/><text text-anchor="middle" pointer-events="none" font-family="sans-serif" dy="1.5625" font-size="25" fill="#FFFFFF"/><text text-anchor="middle" pointer-events="none" x="0" y="5" font-size="10px" fill="#FFFFFF" font-family="sans-serif"> 11/2/2015</text></g><g class="node" transform="translate(629.4534936487709,149.1598443145884)"><circle class="outline" cx="0" cy="0" r="25" fill="#4C8EDA" stroke="#2870c2" stroke-width="2px"/><text text-anchor="middle" pointer-events="none" font-family="sans-serif" dy="1.5625" font-size="25" fill="#FFFFFF"/><text text-anchor="middle" pointer-events="none" x="0" y="5" font-size="10px" fill="#FFFFFF" font-family="sans-serif"> 11/16/20…</text></g><g class="node" transform="translate(-66.8499296320441,518.4435633735977)"><circle class="outline" cx="0" cy="0" r="25" fill="#4C8EDA" stroke="#2870c2" stroke-width="2px"/><text text-anchor="middle" pointer-events="none" font-family="sans-serif" dy="1.5625" font-size="25" fill="#FFFFFF"/><text text-anchor="middle" pointer-events="none" x="0" y="5" font-size="10px" fill="#FFFFFF" font-family="sans-serif"> 11/4/2015</text></g><g class="node" transform="translate(167.69560306735048,277.8394524305536)"><circle class="outline" cx="0" cy="0" r="25" fill="#4C8EDA" stroke="#2870c2" stroke-width="2px"/><text text-anchor="middle" pointer-events="none" font-family="sans-serif" dy="1.5625" font-size="25" fill="#FFFFFF"/><text text-anchor="middle" pointer-events="none" x="0" y="5" font-size="10px" fill="#FFFFFF" font-family="sans-serif"> 11/30/20…</text></g><g class="node" transform="translate(109.03018611311741,266.25834140213414)"><circle class="outline" cx="0" cy="0" r="25" fill="#4C8EDA" stroke="#2870c2" stroke-width="2px"/><text text-anchor="middle" pointer-events="none" font-family="sans-serif" dy="1.5625" font-size="25" fill="#FFFFFF"/><text text-anchor="middle" pointer-events="none" x="0" y="5" font-size="10px" fill="#FFFFFF" font-family="sans-serif"> 11/29/20…</text></g><g class="node" transform="translate(-28.90647014213844,-135.8737654656471)"><circle class="outline" cx="0" cy="0" r="25" fill="#4C8EDA" stroke="#2870c2" stroke-width="2px"/><text text-anchor="middle" pointer-events="none" font-family="sans-serif" dy="1.5625" font-size="25" fill="#FFFFFF"/><text text-anchor="middle" pointer-events="none" x="0" y="5" font-size="10px" fill="#FFFFFF" font-family="sans-serif"> 11/29/20…</text></g><g class="node" transform="translate(84.59961452468798,-258.75178714086616)"><circle class="outline" cx="0" cy="0" r="25" fill="#4C8EDA" stroke="#2870c2" stroke-width="2px"/><text text-anchor="middle" pointer-events="none" font-family="sans-serif" dy="1.5625" font-size="25" fill="#FFFFFF"/><text text-anchor="middle" pointer-events="none" x="0" y="5" font-size="10px" fill="#FFFFFF" font-family="sans-serif"> 11/29/20…</text></g><g class="node" transform="translate(96.6776696001186,-317.43027751064886)"><circle class="outline" cx="0" cy="0" r="25" fill="#4C8EDA" stroke="#2870c2" stroke-width="2px"/><text text-anchor="middle" pointer-events="none" font-family="sans-serif" dy="1.5625" font-size="25" fill="#FFFFFF"/><text text-anchor="middle" pointer-events="none" x="0" y="5" font-size="10px" fill="#FFFFFF" font-family="sans-serif"> 11/29/20…</text></g><g class="node" transform="translate(153.38904394696908,-336.16579701581827)"><circle class="outline" cx="0" cy="0" r="25" fill="#4C8EDA" stroke="#2870c2" stroke-width="2px"/><text text-anchor="middle" pointer-events="none" font-family="sans-serif" dy="1.5625" font-size="25" fill="#FFFFFF"/><text text-anchor="middle" pointer-events="none" x="0" y="5" font-size="10px" fill="#FFFFFF" font-family="sans-serif"> 11/30/20…</text></g><g class="node" transform="translate(39.93770025653412,-298.5710007464143)"><circle class="outline" cx="0" cy="0" r="25" fill="#4C8EDA" stroke="#2870c2" stroke-width="2px"/><text text-anchor="middle" pointer-events="none" font-family="sans-serif" dy="1.5625" font-size="25" fill="#FFFFFF"/><text text-anchor="middle" pointer-events="none" x="0" y="5" font-size="10px" fill="#FFFFFF" font-family="sans-serif"> 11/29/20…</text></g><g class="node" transform="translate(108.81736810780028,-376.0153505121119)"><circle class="outline" cx="0" cy="0" r="25" fill="#4C8EDA" stroke="#2870c2" stroke-width="2px"/><text text-anchor="middle" pointer-events="none" font-family="sans-serif" dy="1.5625" font-size="25" fill="#FFFFFF"/><text text-anchor="middle" pointer-events="none" x="0" y="5" font-size="10px" fill="#FFFFFF" font-family="sans-serif"> 11/30/20…</text></g><g class="node" transform="translate(-283.88755666722517,191.90819303534258)"><circle class="outline" cx="0" cy="0" r="25" fill="#4C8EDA" stroke="#2870c2" stroke-width="2px"/><text text-anchor="middle" pointer-events="none" font-family="sans-serif" dy="1.5625" font-size="25" fill="#FFFFFF"/><text text-anchor="middle" pointer-events="none" x="0" y="5" font-size="10px" fill="#FFFFFF" font-family="sans-serif"> 11/30/20…</text></g><g class="node" transform="translate(-253.7393817303163,5.12891045042037)"><circle class="outline" cx="0" cy="0" r="25" fill="#ECB5C9" stroke="#da7298" stroke-width="2px"/><text text-anchor="middle" pointer-events="none" font-family="sans-serif" dy="1.5625" font-size="25" fill="#2A2C34"/><text text-anchor="middle" pointer-events="none" x="0" y="5" font-size="10px" fill="#2A2C34" font-family="sans-serif"> IAH</text></g><g class="node" transform="translate(-52.83021657994502,23.171061084306302)"><circle class="outline" cx="0" cy="0" r="25" fill="#4C8EDA" stroke="#2870c2" stroke-width="2px"/><text text-anchor="middle" pointer-events="none" font-family="sans-serif" dy="1.5625" font-size="25" fill="#FFFFFF"/><text text-anchor="middle" pointer-events="none" x="0" y="5" font-size="10px" fill="#FFFFFF" font-family="sans-serif"> 11/29/20…</text></g><g class="node" transform="translate(-112.52665824448695,25.25848355614856)"><circle class="outline" cx="0" cy="0" r="25" fill="#4C8EDA" stroke="#2870c2" stroke-width="2px"/><text text-anchor="middle" pointer-events="none" font-family="sans-serif" dy="1.5625" font-size="25" fill="#FFFFFF"/><text text-anchor="middle" pointer-events="none" x="0" y="5" font-size="10px" fill="#FFFFFF" font-family="sans-serif"> 11/29/20…</text></g><g class="node" transform="translate(-32.40520912712495,245.9709887887317)"><circle class="outline" cx="0" cy="0" r="25" fill="#4C8EDA" stroke="#2870c2" stroke-width="2px"/><text text-anchor="middle" pointer-events="none" font-family="sans-serif" dy="1.5625" font-size="25" fill="#FFFFFF"/><text text-anchor="middle" pointer-events="none" x="0" y="5" font-size="10px" fill="#FFFFFF" font-family="sans-serif"> 11/29/20…</text></g><g class="node" transform="translate(30.257720049414708,-127.37779465940437)"><circle class="outline" cx="0" cy="0" r="25" fill="#4C8EDA" stroke="#2870c2" stroke-width="2px"/><text text-anchor="middle" pointer-events="none" font-family="sans-serif" dy="1.5625" font-size="25" fill="#FFFFFF"/><text text-anchor="middle" pointer-events="none" x="0" y="5" font-size="10px" fill="#FFFFFF" font-family="sans-serif"> 11/30/20…</text></g><g class="node" transform="translate(94.95678798030647,-89.76500322564108)"><circle class="outline" cx="0" cy="0" r="25" fill="#4C8EDA" stroke="#2870c2" stroke-width="2px"/><text text-anchor="middle" pointer-events="none" font-family="sans-serif" dy="1.5625" font-size="25" fill="#FFFFFF"/><text text-anchor="middle" pointer-events="none" x="0" y="5" font-size="10px" fill="#FFFFFF" font-family="sans-serif"> 11/29/20…</text></g><g class="node" transform="translate(142.1693869643496,-126.28519059765082)"><circle class="outline" cx="0" cy="0" r="25" fill="#4C8EDA" stroke="#2870c2" stroke-width="2px"/><text text-anchor="middle" pointer-events="none" font-family="sans-serif" dy="1.5625" font-size="25" fill="#FFFFFF"/><text text-anchor="middle" pointer-events="none" x="0" y="5" font-size="10px" fill="#FFFFFF" font-family="sans-serif"> 11/29/20…</text></g><g class="node" transform="translate(197.62279576273883,-103.61571230035396)"><circle class="outline" cx="0" cy="0" r="25" fill="#4C8EDA" stroke="#2870c2" stroke-width="2px"/><text text-anchor="middle" pointer-events="none" font-family="sans-serif" dy="1.5625" font-size="25" fill="#FFFFFF"/><text text-anchor="middle" pointer-events="none" x="0" y="5" font-size="10px" fill="#FFFFFF" font-family="sans-serif"> 11/29/20…</text></g><g class="node" transform="translate(150.26520247975304,-67.03699709173802)"><circle class="outline" cx="0" cy="0" r="25" fill="#4C8EDA" stroke="#2870c2" stroke-width="2px"/><text text-anchor="middle" pointer-events="none" font-family="sans-serif" dy="1.5625" font-size="25" fill="#FFFFFF"/><text text-anchor="middle" pointer-events="none" x="0" y="5" font-size="10px" fill="#FFFFFF" font-family="sans-serif"> 11/30/20…</text></g><g class="node" transform="translate(-85.49095534771806,-27.991569288287945)"><circle class="outline" cx="0" cy="0" r="25" fill="#4C8EDA" stroke="#2870c2" stroke-width="2px"/><text text-anchor="middle" pointer-events="none" font-family="sans-serif" dy="1.5625" font-size="25" fill="#FFFFFF"/><text text-anchor="middle" pointer-events="none" x="0" y="5" font-size="10px" fill="#FFFFFF" font-family="sans-serif"> 11/30/20…</text></g><g class="node" transform="translate(253.0154267476125,-80.86287233262985)"><circle class="outline" cx="0" cy="0" r="25" fill="#4C8EDA" stroke="#2870c2" stroke-width="2px"/><text text-anchor="middle" pointer-events="none" font-family="sans-serif" dy="1.5625" font-size="25" fill="#FFFFFF"/><text text-anchor="middle" pointer-events="none" x="0" y="5" font-size="10px" fill="#FFFFFF" font-family="sans-serif"> 11/29/20…</text></g><g class="node" transform="translate(205.6807939313666,-44.330899894014074)"><circle class="outline" cx="0" cy="0" r="25" fill="#4C8EDA" stroke="#2870c2" stroke-width="2px"/><text text-anchor="middle" pointer-events="none" font-family="sans-serif" dy="1.5625" font-size="25" fill="#FFFFFF"/><text text-anchor="middle" pointer-events="none" x="0" y="5" font-size="10px" fill="#FFFFFF" font-family="sans-serif"> 11/29/20…</text></g><g class="node" transform="translate(-268.9569429025491,262.3507674624657)"><circle class="outline" cx="0" cy="0" r="25" fill="#4C8EDA" stroke="#2870c2" stroke-width="2px"/><text text-anchor="middle" pointer-events="none" font-family="sans-serif" dy="1.5625" font-size="25" fill="#FFFFFF"/><text text-anchor="middle" pointer-events="none" x="0" y="5" font-size="10px" fill="#FFFFFF" font-family="sans-serif"> 11/30/20…</text></g><g class="node" transform="translate(-253.44677113433613,121.79614237567911)"><circle class="outline" cx="0" cy="0" r="25" fill="#ECB5C9" stroke="#da7298" stroke-width="2px"/><text text-anchor="middle" pointer-events="none" font-family="sans-serif" dy="1.5625" font-size="25" fill="#2A2C34"/><text text-anchor="middle" pointer-events="none" x="0" y="5" font-size="10px" fill="#2A2C34" font-family="sans-serif"> EWR</text></g><g class="node" transform="translate(-108.78354599461728,85.06950287781285)"><circle class="outline" cx="0" cy="0" r="25" fill="#4C8EDA" stroke="#2870c2" stroke-width="2px"/><text text-anchor="middle" pointer-events="none" font-family="sans-serif" dy="1.5625" font-size="25" fill="#FFFFFF"/><text text-anchor="middle" pointer-events="none" x="0" y="5" font-size="10px" fill="#FFFFFF" font-family="sans-serif"> 11/30/20…</text></g><g class="node" transform="translate(-305.8757708573641,309.5449260700437)"><circle class="outline" cx="0" cy="0" r="25" fill="#4C8EDA" stroke="#2870c2" stroke-width="2px"/><text text-anchor="middle" pointer-events="none" font-family="sans-serif" dy="1.5625" font-size="25" fill="#FFFFFF"/><text text-anchor="middle" pointer-events="none" x="0" y="5" font-size="10px" fill="#FFFFFF" font-family="sans-serif"> 11/29/20…</text></g><g class="node" transform="translate(-68.50005579957069,129.1025090769127)"><circle class="outline" cx="0" cy="0" r="25" fill="#4C8EDA" stroke="#2870c2" stroke-width="2px"/><text text-anchor="middle" pointer-events="none" font-family="sans-serif" dy="1.5625" font-size="25" fill="#FFFFFF"/><text text-anchor="middle" pointer-events="none" x="0" y="5" font-size="10px" fill="#FFFFFF" font-family="sans-serif"> 11/30/20…</text></g><g class="node" transform="translate(-328.3504026747019,254.10085616707343)"><circle class="outline" cx="0" cy="0" r="25" fill="#4C8EDA" stroke="#2870c2" stroke-width="2px"/><text text-anchor="middle" pointer-events="none" font-family="sans-serif" dy="1.5625" font-size="25" fill="#FFFFFF"/><text text-anchor="middle" pointer-events="none" x="0" y="5" font-size="10px" fill="#FFFFFF" font-family="sans-serif"> 11/29/20…</text></g><g class="node" transform="translate(-210.07025384886182,464.8451348638823)"><circle class="outline" cx="0" cy="0" r="25" fill="#4C8EDA" stroke="#2870c2" stroke-width="2px"/><text text-anchor="middle" pointer-events="none" font-family="sans-serif" dy="1.5625" font-size="25" fill="#FFFFFF"/><text text-anchor="middle" pointer-events="none" x="0" y="5" font-size="10px" fill="#FFFFFF" font-family="sans-serif"> 11/29/20…</text></g><g class="node" transform="translate(-83.34143378808136,353.8960559355986)"><circle class="outline" cx="0" cy="0" r="25" fill="#ECB5C9" stroke="#da7298" stroke-width="2px"/><text text-anchor="middle" pointer-events="none" font-family="sans-serif" dy="1.5625" font-size="25" fill="#2A2C34"/><text text-anchor="middle" pointer-events="none" x="0" y="5" font-size="10px" fill="#2A2C34" font-family="sans-serif"> BOS</text></g><g class="node" transform="translate(50.42226220290131,236.22126213705354)"><circle class="outline" cx="0" cy="0" r="25" fill="#4C8EDA" stroke="#2870c2" stroke-width="2px"/><text text-anchor="middle" pointer-events="none" font-family="sans-serif" dy="1.5625" font-size="25" fill="#FFFFFF"/><text text-anchor="middle" pointer-events="none" x="0" y="5" font-size="10px" fill="#FFFFFF" font-family="sans-serif"> 11/30/20…</text></g><g class="node" transform="translate(7.552913957494475,194.40739440867597)"><circle class="outline" cx="0" cy="0" r="25" fill="#4C8EDA" stroke="#2870c2" stroke-width="2px"/><text text-anchor="middle" pointer-events="none" font-family="sans-serif" dy="1.5625" font-size="25" fill="#FFFFFF"/><text text-anchor="middle" pointer-events="none" x="0" y="5" font-size="10px" fill="#FFFFFF" font-family="sans-serif"> 11/29/20…</text></g><g class="node" transform="translate(-38.334338767423255,-76.80960922052637)"><circle class="outline" cx="0" cy="0" r="25" fill="#4C8EDA" stroke="#2870c2" stroke-width="2px"/><text text-anchor="middle" pointer-events="none" font-family="sans-serif" dy="1.5625" font-size="25" fill="#FFFFFF"/><text text-anchor="middle" pointer-events="none" x="0" y="5" font-size="10px" fill="#FFFFFF" font-family="sans-serif"> 11/30/20…</text></g></g></svg>