<svg xmlns="http://www.w3.org/2000/svg" width="403.65234375" height="401.0855712890625" viewBox="-95.83577728271484 -88.88218688964844 403.65234375 401.0855712890625"><title>Neo4j Graph Visualization</title><desc>Created using Neo4j (http://www.neo4j.com/)</desc><g class="layer relationships"><g class="relationship" transform="translate(278.81656906906886 99.09825621450675) rotate(461.38396828381826)"><path class="outline" fill="#A5ABB6" stroke="none" d="M 25 0.5 L 33.13807626602311 0.5 L 33.13807626602311 -0.5 L 25 -0.5 Z M 67.58338876602312 0.5 L 75.72146503204623 0.5 L 75.72146503204623 3.5 L 82.72146503204623 0 L 75.72146503204623 -3.5 L 75.72146503204623 -0.5 L 67.58338876602312 -0.5 Z"/><text text-anchor="middle" pointer-events="none" font-size="8px" fill="#000000" x="50.36073251602311" y="3" transform="rotate(180 50.36073251602311 0)" font-family="sans-serif">ORIGIN</text></g><g class="relationship" transform="translate(278.81656906906886 99.09825621450675) rotate(246.9705158015836)"><path class="outline" fill="#A5ABB6" stroke="none" d="M 25 0.5 L 26.375938270660747 0.5 L 26.375938270660747 -0.5 L 25 -0.5 Z M 75.04781327066075 0.5 L 76.4237515413215 0.5 L 76.4237515413215 3.5 L 83.4237515413215 0 L 76.4237515413215 -3.5 L 76.4237515413215 -0.5 L 75.04781327066075 -0.5 Z"/><text text-anchor="middle" pointer-events="none" font-size="8px" fill="#000000" x="50.71187577066075" y="3" transform="rotate(180 50.71187577066075 0)" font-family="sans-serif">DESTINA…</text></g><g class="relationship" transform="translate(144.44437428534746 -59.88219188192047) rotate(392.77176172288955)"><path class="outline" fill="#A5ABB6" stroke="none" d="M 25 0.5 L 33.95898310371196 0.5 L 33.95898310371196 -0.5 L 25 -0.5 Z M 68.40429560371196 0.5 L 77.36327870742392 0.5 L 77.36327870742392 3.5 L 84.36327870742392 0 L 77.36327870742392 -3.5 L 77.36327870742392 -0.5 L 68.40429560371196 -0.5 Z"/><text text-anchor="middle" pointer-events="none" font-size="8px" fill="#000000" x="51.18163935371196" y="3" font-family="sans-serif">ORIGIN</text></g><g class="relationship" transform="translate(144.44437428534746 -59.88219188192047) rotate(538.7374852569255)"><path class="outline" fill="#A5ABB6" stroke="none" d="M 25 0.5 L 27.01431509891802 0.5 L 27.01431509891802 -0.5 L 25 -0.5 Z M 75.68619009891802 0.5 L 77.70050519783604 0.5 L 77.70050519783604 3.5 L 84.70050519783604 0 L 77.70050519783604 -3.5 L 77.70050519783604 -0.5 L 75.68619009891802 -0.5 Z"/><text text-anchor="middle" pointer-events="none" font-size="8px" fill="#000000" x="51.35025259891802" y="3" transform="rotate(180 51.35025259891802 0)" font-family="sans-serif">DESTINA…</text></g><g class="relationship" transform="translate(-47.67555892370415 13.298685859967584) rotate(319.3603611224583)"><path class="outline" fill="#A5ABB6" stroke="none" d="M 25 0.5 L 26.48917330832878 0.5 L 26.48917330832878 -0.5 L 25 -0.5 Z M 75.16104830832879 0.5 L 76.65022161665756 0.5 L 76.65022161665756 3.5 L 83.65022161665756 0 L 76.65022161665756 -3.5 L 76.65022161665756 -0.5 L 75.16104830832879 -0.5 Z"/><text text-anchor="middle" pointer-events="none" font-size="8px" fill="#000000" x="50.82511080832878" y="3" font-family="sans-serif">DESTINA…</text></g><g class="relationship" transform="translate(-47.67555892370415 13.298685859967584) rotate(460.0957719608225)"><path class="outline" fill="#A5ABB6" stroke="none" d="M 25 0.5 L 33.92899485058067 0.5 L 33.92899485058067 -0.5 L 25 -0.5 Z M 68.37430735058066 0.5 L 77.30330220116134 0.5 L 77.30330220116134 3.5 L 84.30330220116134 0 L 77.30330220116134 -3.5 L 77.30330220116134 -0.5 L 68.37430735058066 -0.5 Z"/><text text-anchor="middle" pointer-events="none" font-size="8px" fill="#000000" x="51.15165110058067" y="3" transform="rotate(180 51.15165110058067 0)" font-family="sans-serif">ORIGIN</text></g><g class="relationship" transform="translate(-32.23625661287177 223.11798387272037) rotate(251.29805006227434)"><path class="outline" fill="#A5ABB6" stroke="none" d="M 25 0.5 L 33.23031231930798 0.5 L 33.23031231930798 -0.5 L 25 -0.5 Z M 67.67562481930798 0.5 L 75.90593713861595 0.5 L 75.90593713861595 3.5 L 82.90593713861595 0 L 75.90593713861595 -3.5 L 75.90593713861595 -0.5 L 67.67562481930798 -0.5 Z"/><text text-anchor="middle" pointer-events="none" font-size="8px" fill="#000000" x="50.45296856930798" y="3" transform="rotate(180 50.45296856930798 0)" font-family="sans-serif">ORIGIN</text></g><g class="relationship" transform="translate(-32.23625661287177 223.11798387272037) rotate(394.0237026832106)"><path class="outline" fill="#A5ABB6" stroke="none" d="M 25 0.5 L 25.856234561787588 0.5 L 25.856234561787588 -0.5 L 25 -0.5 Z M 74.52810956178759 0.5 L 75.38434412357518 0.5 L 75.38434412357518 3.5 L 82.38434412357518 0 L 75.38434412357518 -3.5 L 75.38434412357518 -0.5 L 74.52810956178759 -0.5 Z"/><text text-anchor="middle" pointer-events="none" font-size="8px" fill="#000000" x="50.19217206178759" y="3" font-family="sans-serif">DESTINA…</text></g></g><g class="layer nodes"><g class="node" transform="translate(56.7645502706572,283.20337092257796)"><circle class="outline" cx="0" cy="0" r="25" fill="#ECB5C9" stroke="#da7298" stroke-width="2px"/><text text-anchor="middle" pointer-events="none" font-family="sans-serif" dy="1.5625" font-size="25" fill="#2A2C34"/><text text-anchor="middle" pointer-events="none" x="0" y="5" font-size="10px" fill="#2A2C34" font-family="sans-serif"> DAY</text></g><g class="node" transform="translate(257.5541781102104,204.70045675674456)"><circle class="outline" cx="0" cy="0" r="25" fill="#ECB5C9" stroke="#da7298" stroke-width="2px"/><text text-anchor="middle" pointer-events="none" font-family="sans-serif" dy="1.5625" font-size="25" fill="#2A2C34"/><text text-anchor="middle" pointer-events="none" x="0" y="5" font-size="10px" fill="#2A2C34" font-family="sans-serif"> LAX</text></g><g class="node" transform="translate(278.81656906906886,99.09825621450675)"><circle class="outline" cx="0" cy="0" r="25" fill="#4C8EDA" stroke="#2870c2" stroke-width="2px"/><text text-anchor="middle" pointer-events="none" font-family="sans-serif" dy="1.5625" font-size="25" fill="#FFFFFF"/><text text-anchor="middle" pointer-events="none" x="0" y="5" font-size="10px" fill="#FFFFFF" font-family="sans-serif"> 11/29/20…</text></g><g class="node" transform="translate(236.4006808093659,-0.6845194606297264)"><circle class="outline" cx="0" cy="0" r="25" fill="#ECB5C9" stroke="#da7298" stroke-width="2px"/><text text-anchor="middle" pointer-events="none" font-family="sans-serif" dy="1.5625" font-size="25" fill="#2A2C34"/><text text-anchor="middle" pointer-events="none" x="0" y="5" font-size="10px" fill="#2A2C34" font-family="sans-serif"> LAS</text></g><g class="node" transform="translate(144.44437428534746,-59.88219188192047)"><circle class="outline" cx="0" cy="0" r="25" fill="#4C8EDA" stroke="#2870c2" stroke-width="2px"/><text text-anchor="middle" pointer-events="none" font-family="sans-serif" dy="1.5625" font-size="25" fill="#FFFFFF"/><text text-anchor="middle" pointer-events="none" x="0" y="5" font-size="10px" fill="#FFFFFF" font-family="sans-serif"> 11/29/20…</text></g><g class="node" transform="translate(34.77050016334629,-57.46513256698978)"><circle class="outline" cx="0" cy="0" r="25" fill="#ECB5C9" stroke="#da7298" stroke-width="2px"/><text text-anchor="middle" pointer-events="none" font-family="sans-serif" dy="1.5625" font-size="25" fill="#2A2C34"/><text text-anchor="middle" pointer-events="none" x="0" y="5" font-size="10px" fill="#2A2C34" font-family="sans-serif"> DEN</text></g><g class="node" transform="translate(-47.67555892370415,13.298685859967584)"><circle class="outline" cx="0" cy="0" r="25" fill="#4C8EDA" stroke="#2870c2" stroke-width="2px"/><text text-anchor="middle" pointer-events="none" font-family="sans-serif" dy="1.5625" font-size="25" fill="#FFFFFF"/><text text-anchor="middle" pointer-events="none" x="0" y="5" font-size="10px" fill="#FFFFFF" font-family="sans-serif"> 11/29/20…</text></g><g class="node" transform="translate(-66.83578028353055,120.90954864584461)"><circle class="outline" cx="0" cy="0" r="25" fill="#ECB5C9" stroke="#da7298" stroke-width="2px"/><text text-anchor="middle" pointer-events="none" font-family="sans-serif" dy="1.5625" font-size="25" fill="#2A2C34"/><text text-anchor="middle" pointer-events="none" x="0" y="5" font-size="10px" fill="#2A2C34" font-family="sans-serif"> MSP</text></g><g class="node" transform="translate(-32.23625661287177,223.11798387272037)"><circle class="outline" cx="0" cy="0" r="25" fill="#4C8EDA" stroke="#2870c2" stroke-width="2px"/><text text-anchor="middle" pointer-events="none" font-family="sans-serif" dy="1.5625" font-size="25" fill="#FFFFFF"/><text text-anchor="middle" pointer-events="none" x="0" y="5" font-size="10px" fill="#FFFFFF" font-family="sans-serif"> 11/23/20…</text></g></g></svg>